<svg width="25" height="25" viewBox="0 0 17 18" fill="red" xmlns="http://www.w3.org/2000/svg">
<path  d="M8.18386 0.757657C4.64734 0.924231 1.93752 3.9627 1.93752 7.47909V10.6587L0.777974 12.9914C0.775935 12.9957 0.773941 12.9999 0.771993 13.0042C0.305505 13.9963 1.06064 15.1875 2.15712 15.1875H5.87502C5.87502 16.6294 7.05808 17.8125 8.50002 17.8125C9.94196 17.8125 11.125 16.6294 11.125 15.1875H14.8421C15.9385 15.1875 16.6947 13.9965 16.228 13.0042C16.2261 12.9999 16.2241 12.9957 16.2221 12.9914L15.0625 10.6587V7.31247C15.0625 3.591 11.9402 0.580814 8.18386 0.757657ZM8.24538 2.06845C11.2729 1.92592 13.75 4.32093 13.75 7.31247V10.8125C13.7499 10.9139 13.7733 11.0139 13.8184 11.1047L15.0403 13.5639C15.1189 13.7323 15.028 13.875 14.8421 13.875H2.15712C1.97122 13.875 1.88104 13.7326 1.95974 13.5639V13.5631L3.18166 11.1047C3.22671 11.0139 3.25011 10.9139 3.25002 10.8125V7.47909C3.25002 4.63511 5.42853 2.20112 8.24538 2.06845ZM7.18752 15.1875H9.81252C9.81252 15.9199 9.23245 16.5 8.50002 16.5C7.76759 16.5 7.18752 15.9199 7.18752 15.1875Z" />
</svg>
