<svg width="17" height="18" viewBox="0 0 17 18" fill="none" xmlns="http://www.w3.org/2000/svg">
<path d="M8.47864 0.750073C8.33871 0.754852 8.20397 0.804255 8.09412 0.891065L1.87598 5.78987C1.08677 6.41183 0.625 7.36223 0.625 8.36702V16.7188C0.625 17.3154 1.12218 17.8126 1.71875 17.8126H6.09375C6.69032 17.8126 7.1875 17.3154 7.1875 16.7188V12.3438C7.1875 12.2147 7.27717 12.1251 7.40625 12.1251H9.59375C9.72283 12.1251 9.8125 12.2147 9.8125 12.3438V16.7188C9.8125 17.3154 10.3097 17.8126 10.9062 17.8126H15.2812C15.8778 17.8126 16.375 17.3154 16.375 16.7188V8.36702C16.375 7.36223 15.9132 6.41183 15.124 5.78987L8.90588 0.891065C8.78453 0.795198 8.63322 0.745265 8.47864 0.750073ZM8.5 2.24202L14.3123 6.82124C14.7866 7.19503 15.0625 7.76355 15.0625 8.36702V16.5001H11.125V12.3438C11.125 11.506 10.4315 10.8126 9.59375 10.8126H7.40625C6.56846 10.8126 5.875 11.506 5.875 12.3438V16.5001H1.9375V8.36702C1.9375 7.76355 2.21345 7.19503 2.68774 6.82124L8.5 2.24202Z" fill="#C5C7D4"/>
</svg>
