<svg width="15" height="19" viewBox="0 0 15 19" fill="none" xmlns="http://www.w3.org/2000/svg">
<path d="M7.5 0.75C5.09153 0.75 3.125 2.71653 3.125 5.125C3.125 7.53347 5.09153 9.5 7.5 9.5C9.90847 9.5 11.875 7.53347 11.875 5.125C11.875 2.71653 9.90847 0.75 7.5 0.75ZM7.5 2.0625C9.19915 2.0625 10.5625 3.42585 10.5625 5.125C10.5625 6.82415 9.19915 8.1875 7.5 8.1875C5.80085 8.1875 4.4375 6.82415 4.4375 5.125C4.4375 3.42585 5.80085 2.0625 7.5 2.0625ZM2.46875 11.25C1.38922 11.25 0.5 12.1392 0.5 13.2188V13.7434C0.5 15.03 1.31581 16.1841 2.56018 16.9777C3.80455 17.7712 5.50712 18.25 7.5 18.25C9.49288 18.25 11.1955 17.7712 12.4398 16.9777C13.6842 16.1841 14.5 15.03 14.5 13.7434V13.2188C14.5 12.1392 13.6108 11.25 12.5312 11.25H2.46875ZM2.46875 12.5625H12.5312C12.9016 12.5625 13.1875 12.8484 13.1875 13.2188V13.7434C13.1875 14.4719 12.7183 15.2434 11.734 15.8711C10.7498 16.4988 9.28012 16.9375 7.5 16.9375C5.71988 16.9375 4.25025 16.4988 3.26599 15.8711C2.28173 15.2434 1.8125 14.4719 1.8125 13.7434V13.2188C1.8125 12.8484 2.09841 12.5625 2.46875 12.5625Z" fill="#C5C7D4"/>
</svg>
