<svg  width="14" height="14" viewBox="0 0 14 14" fill="none"  xmlns="http://www.w3.org/2000/svg">
<path fill="red" d="M1.9374 0.249934C1.05415 0.249934 0.327309 0.946468 0.262353 1.81439C0.253693 1.85482 0.249518 1.89609 0.249902 1.93743V3.06243V3.62493V12.0624C0.249902 12.9877 1.01209 13.7499 1.9374 13.7499H12.0624C12.9877 13.7499 13.7499 12.9877 13.7499 12.0624V4.18743C13.7499 3.26212 12.9877 2.49993 12.0624 2.49993H1.9374C1.61997 2.49993 1.3749 2.25487 1.3749 1.93743C1.3749 1.62 1.61997 1.37493 1.9374 1.37493H11.3124C11.3869 1.37599 11.4609 1.36222 11.5301 1.33442C11.5993 1.30663 11.6622 1.26536 11.7153 1.21302C11.7684 1.16069 11.8106 1.09832 11.8393 1.02955C11.8681 0.960781 11.8829 0.88698 11.8829 0.812434C11.8829 0.737889 11.8681 0.664087 11.8393 0.595317C11.8106 0.526547 11.7684 0.464182 11.7153 0.411844C11.6622 0.359507 11.5993 0.318241 11.5301 0.290446C11.4609 0.262651 11.3869 0.24888 11.3124 0.249934H1.9374ZM1.3749 3.62493H1.9374H12.0624C12.3798 3.62493 12.6249 3.87 12.6249 4.18743V12.0624C12.6249 12.3799 12.3798 12.6249 12.0624 12.6249H1.9374C1.61997 12.6249 1.3749 12.3799 1.3749 12.0624V3.62493ZM10.5624 6.99993C10.3138 6.99993 10.0753 7.09871 9.89949 7.27452C9.72367 7.45034 9.6249 7.68879 9.6249 7.93743C9.6249 8.18607 9.72367 8.42453 9.89949 8.60035C10.0753 8.77616 10.3138 8.87493 10.5624 8.87493C10.811 8.87493 11.0495 8.77616 11.2253 8.60035C11.4011 8.42453 11.4999 8.18607 11.4999 7.93743C11.4999 7.68879 11.4011 7.45034 11.2253 7.27452C11.0495 7.09871 10.811 6.99993 10.5624 6.99993Z" />
</svg>
