<svg width="31" height="31" viewBox="0 0 31 31" fill="none" xmlns="http://www.w3.org/2000/svg">
<path d="M15.5002 2.5835C8.37791 2.5835 2.5835 8.37791 2.5835 15.5002C2.5835 22.6224 8.37791 28.4168 15.5002 28.4168C22.6224 28.4168 28.4168 22.6224 28.4168 15.5002C28.4168 13.4277 27.9144 11.4748 27.0432 9.73686L25.5938 11.1862C26.1622 12.5108 26.4793 13.9689 26.4793 15.5002C26.4793 21.5542 21.5542 26.4793 15.5002 26.4793C9.44612 26.4793 4.521 21.5542 4.521 15.5002C4.521 9.44612 9.44612 4.521 15.5002 4.521C18.3715 4.521 20.9804 5.63777 22.9386 7.44869L24.3085 6.07882C21.9983 3.91721 18.9056 2.5835 15.5002 2.5835ZM25.4917 7.0955C25.2401 7.10283 25.0012 7.20779 24.8256 7.38814L13.8856 18.3282L11.3413 15.784C11.2521 15.691 11.1452 15.6168 11.0269 15.5656C10.9085 15.5145 10.7812 15.4875 10.6523 15.4862C10.5235 15.4849 10.3956 15.5093 10.2763 15.558C10.157 15.6067 10.0485 15.6788 9.95741 15.7699C9.86627 15.861 9.79423 15.9695 9.74551 16.0888C9.6968 16.2081 9.67238 16.336 9.67369 16.4648C9.675 16.5937 9.70201 16.721 9.75314 16.8394C9.80428 16.9577 9.8785 17.0646 9.97148 17.1538L13.2006 20.383C13.3823 20.5646 13.6287 20.6666 13.8856 20.6666C14.1425 20.6666 14.3888 20.5646 14.5705 20.383L26.1955 8.75802C26.3353 8.6219 26.4307 8.44677 26.4693 8.25553C26.5078 8.0643 26.4878 7.86587 26.4117 7.68622C26.3357 7.50657 26.2072 7.35407 26.043 7.24867C25.8788 7.14327 25.6867 7.08988 25.4917 7.0955Z" fill="white"/>
</svg>
