<svg width="33" height="34" viewBox="0 0 33 34" fill="none" xmlns="http://www.w3.org/2000/svg">
<path d="M16.6951 0.684082C7.76627 0.684082 0.501953 7.9484 0.501953 16.8773C0.501953 25.8061 7.76627 33.0704 16.6951 33.0704C25.624 33.0704 32.8883 25.8061 32.8883 16.8773C32.8883 7.9484 25.624 0.684082 16.6951 0.684082ZM16.6951 3.11306C24.3113 3.11306 30.4593 9.26112 30.4593 16.8773C30.4593 24.4934 24.3113 30.6415 16.6951 30.6415C9.07898 30.6415 2.93093 24.4934 2.93093 16.8773C2.93093 9.26112 9.07898 3.11306 16.6951 3.11306ZM16.6951 8.78067C13.5549 8.78067 10.8224 10.5829 9.48095 13.2101L9.00812 12.0383C8.91957 11.8103 8.76427 11.6144 8.56253 11.4761C8.36079 11.3379 8.12201 11.2637 7.87744 11.2634C7.67698 11.2631 7.47956 11.3125 7.3028 11.4071C7.12605 11.5016 6.97544 11.6385 6.86442 11.8054C6.75341 11.9723 6.68543 12.1641 6.66656 12.3637C6.64768 12.5632 6.6785 12.7644 6.75625 12.9492L8.36292 16.9279C8.48372 17.2265 8.71819 17.4649 9.01475 17.5906C9.31131 17.7164 9.64567 17.7191 9.94429 17.5984L13.923 15.9917C14.0746 15.9347 14.2133 15.8479 14.3308 15.7365C14.4484 15.6251 14.5425 15.4914 14.6076 15.3431C14.6727 15.1947 14.7075 15.0349 14.7099 14.873C14.7124 14.711 14.6824 14.5502 14.6217 14.4C14.5611 14.2499 14.471 14.1133 14.3568 13.9985C14.2426 13.8836 14.1066 13.7927 13.9568 13.7312C13.807 13.6697 13.6463 13.6388 13.4844 13.6403C13.3224 13.6417 13.1624 13.6756 13.0137 13.7398L11.6506 14.2902C12.5875 12.461 14.4868 11.2097 16.6951 11.2097C18.4289 11.2097 19.9652 11.9797 21.0059 13.1974C21.108 13.3238 21.2343 13.4284 21.3774 13.505C21.5206 13.5817 21.6776 13.6289 21.8393 13.6438C22.001 13.6587 22.1641 13.6411 22.3188 13.5919C22.4736 13.5427 22.6169 13.463 22.7403 13.3574C22.8637 13.2519 22.9647 13.1227 23.0373 12.9774C23.11 12.8322 23.1527 12.6738 23.1631 12.5118C23.1734 12.3497 23.1512 12.1873 23.0976 12.0339C23.0441 11.8806 22.9604 11.7396 22.8514 11.6192C21.3677 9.88328 19.1522 8.78067 16.6951 8.78067ZM23.8856 16.0676C23.7348 16.0696 23.5858 16.0996 23.446 16.1562L19.4673 17.7628C19.3157 17.8198 19.177 17.9066 19.0594 18.018C18.9419 18.1294 18.8477 18.2632 18.7826 18.4115C18.7175 18.5598 18.6828 18.7196 18.6803 18.8816C18.6779 19.0435 18.7079 19.2043 18.7685 19.3545C18.8292 19.5047 18.9193 19.6412 19.0335 19.7561C19.1476 19.8709 19.2837 19.9618 19.4335 20.0233C19.5833 20.0848 19.7439 20.1157 19.9059 20.1143C20.0678 20.1128 20.2279 20.0789 20.3766 20.0147L21.7397 19.4644C20.8028 21.2935 18.9035 22.5449 16.6951 22.5449C14.9614 22.5449 13.4251 21.7748 12.3843 20.5571C12.2823 20.4308 12.156 20.3262 12.0129 20.2495C11.8697 20.1728 11.7126 20.1256 11.5509 20.1107C11.3892 20.0958 11.2262 20.1135 11.0714 20.1626C10.9167 20.2118 10.7734 20.2916 10.6499 20.3971C10.5265 20.5026 10.4255 20.6319 10.3529 20.7771C10.2803 20.9223 10.2376 21.0807 10.2272 21.2427C10.2169 21.4048 10.2391 21.5673 10.2926 21.7206C10.3462 21.8739 10.4299 22.0149 10.5389 22.1353C12.0226 23.8713 14.2381 24.9739 16.6951 24.9739C19.8354 24.9739 22.5678 23.1717 23.9093 20.5445L24.3822 21.7162C24.4409 21.8656 24.5287 22.0018 24.6404 22.117C24.7521 22.2323 24.8855 22.3242 25.033 22.3875C25.1804 22.4509 25.339 22.4844 25.4994 22.4861C25.6599 22.4878 25.8191 22.4577 25.9679 22.3976C26.1167 22.3374 26.252 22.2483 26.3662 22.1355C26.4803 22.0227 26.571 21.8884 26.6329 21.7404C26.6949 21.5923 26.7269 21.4335 26.7271 21.273C26.7272 21.1125 26.6956 20.9536 26.634 20.8054L25.0274 16.8267C24.9356 16.5999 24.7775 16.4061 24.5738 16.2706C24.3701 16.1352 24.1302 16.0644 23.8856 16.0676Z" fill="#444444"/>
</svg>
