<svg width="20" height="20" viewBox="0 0 20 20" fill="none" xmlns="http://www.w3.org/2000/svg">
<path d="M3.52083 0.25C1.58603 0.25 0 1.83603 0 3.77083V16.2292C0 18.164 1.58603 19.75 3.52083 19.75H15.9792C17.914 19.75 19.5 18.164 19.5 16.2292V3.77083C19.5 1.83603 17.914 0.25 15.9792 0.25H3.52083ZM3.52083 1.875H15.9792C17.0354 1.875 17.875 2.71455 17.875 3.77083V4.58333H1.625V3.77083C1.625 2.71455 2.46455 1.875 3.52083 1.875ZM1.625 6.20833H17.875V16.2292C17.875 17.2854 17.0354 18.125 15.9792 18.125H3.52083C2.46455 18.125 1.625 17.2854 1.625 16.2292V6.20833ZM5.14583 8.375C4.78669 8.375 4.44225 8.51767 4.18829 8.77163C3.93434 9.02558 3.79167 9.37002 3.79167 9.72917C3.79167 10.0883 3.93434 10.4328 4.18829 10.6867C4.44225 10.9407 4.78669 11.0833 5.14583 11.0833C5.50498 11.0833 5.84942 10.9407 6.10337 10.6867C6.35733 10.4328 6.5 10.0883 6.5 9.72917C6.5 9.37002 6.35733 9.02558 6.10337 8.77163C5.84942 8.51767 5.50498 8.375 5.14583 8.375ZM9.75 8.375C9.39085 8.375 9.04642 8.51767 8.79246 8.77163C8.5385 9.02558 8.39583 9.37002 8.39583 9.72917C8.39583 10.0883 8.5385 10.4328 8.79246 10.6867C9.04642 10.9407 9.39085 11.0833 9.75 11.0833C10.1091 11.0833 10.4536 10.9407 10.7075 10.6867C10.9615 10.4328 11.1042 10.0883 11.1042 9.72917C11.1042 9.37002 10.9615 9.02558 10.7075 8.77163C10.4536 8.51767 10.1091 8.375 9.75 8.375ZM14.3542 8.375C13.995 8.375 13.6506 8.51767 13.3966 8.77163C13.1427 9.02558 13 9.37002 13 9.72917C13 10.0883 13.1427 10.4328 13.3966 10.6867C13.6506 10.9407 13.995 11.0833 14.3542 11.0833C14.7133 11.0833 15.0578 10.9407 15.3117 10.6867C15.5657 10.4328 15.7083 10.0883 15.7083 9.72917C15.7083 9.37002 15.5657 9.02558 15.3117 8.77163C15.0578 8.51767 14.7133 8.375 14.3542 8.375ZM5.14583 13.25C4.78669 13.25 4.44225 13.3927 4.18829 13.6466C3.93434 13.9006 3.79167 14.245 3.79167 14.6042C3.79167 14.9633 3.93434 15.3078 4.18829 15.5617C4.44225 15.8157 4.78669 15.9583 5.14583 15.9583C5.50498 15.9583 5.84942 15.8157 6.10337 15.5617C6.35733 15.3078 6.5 14.9633 6.5 14.6042C6.5 14.245 6.35733 13.9006 6.10337 13.6466C5.84942 13.3927 5.50498 13.25 5.14583 13.25ZM9.75 13.25C9.39085 13.25 9.04642 13.3927 8.79246 13.6466C8.5385 13.9006 8.39583 14.245 8.39583 14.6042C8.39583 14.9633 8.5385 15.3078 8.79246 15.5617C9.04642 15.8157 9.39085 15.9583 9.75 15.9583C10.1091 15.9583 10.4536 15.8157 10.7075 15.5617C10.9615 15.3078 11.1042 14.9633 11.1042 14.6042C11.1042 14.245 10.9615 13.9006 10.7075 13.6466C10.4536 13.3927 10.1091 13.25 9.75 13.25Z" fill="#444444"/>
</svg>
