<svg width="26" height="26" viewBox="0 0 26 26" fill="none" xmlns="http://www.w3.org/2000/svg">
<path d="M11.9993 2.16675C6.02588 2.16675 1.16602 7.02662 1.16602 13.0001C1.16602 18.9735 6.02588 23.8334 11.9993 23.8334C17.9728 23.8334 22.8327 18.9735 22.8327 13.0001C22.8327 7.02662 17.9728 2.16675 11.9993 2.16675ZM11.9993 3.79175C17.0946 3.79175 21.2077 7.90484 21.2077 13.0001C21.2077 18.0953 17.0946 22.2084 11.9993 22.2084C6.9041 22.2084 2.79102 18.0953 2.79102 13.0001C2.79102 7.90484 6.9041 3.79175 11.9993 3.79175ZM15.5128 8.65511C15.2982 8.66018 15.0943 8.74994 14.9457 8.90479L11.9993 11.8512L9.05298 8.90479C8.97724 8.82679 8.88663 8.76479 8.7865 8.72245C8.68637 8.68011 8.57877 8.65829 8.47005 8.65828C8.30835 8.65832 8.15034 8.70661 8.01624 8.79695C7.88213 8.8873 7.77803 9.0156 7.71725 9.16544C7.65648 9.31528 7.64179 9.47985 7.67506 9.63809C7.70834 9.79633 7.78807 9.94104 7.90405 10.0537L10.8504 13.0001L7.90405 15.9465C7.82608 16.0213 7.76382 16.111 7.72094 16.2102C7.67805 16.3095 7.65539 16.4162 7.6543 16.5243C7.6532 16.6324 7.67368 16.7397 7.71454 16.8397C7.7554 16.9398 7.81581 17.0307 7.89225 17.1072C7.96869 17.1836 8.05961 17.244 8.15969 17.2849C8.25977 17.3258 8.367 17.3462 8.4751 17.3451C8.58319 17.344 8.68998 17.3214 8.78921 17.2785C8.88844 17.2356 8.97811 17.1734 9.05298 17.0954L11.9993 14.149L14.9457 17.0954C15.0206 17.1734 15.1103 17.2356 15.2095 17.2785C15.3087 17.3214 15.4155 17.344 15.5236 17.3451C15.6317 17.3462 15.7389 17.3258 15.839 17.2849C15.9391 17.244 16.03 17.1836 16.1064 17.1072C16.1829 17.0307 16.2433 16.9398 16.2842 16.8397C16.325 16.7397 16.3455 16.6324 16.3444 16.5243C16.3433 16.4162 16.3206 16.3095 16.2778 16.2102C16.2349 16.111 16.1726 16.0213 16.0946 15.9465L13.1483 13.0001L16.0946 10.0537C16.2128 9.94031 16.2939 9.79385 16.3274 9.63354C16.3609 9.47323 16.3451 9.30654 16.2822 9.15534C16.2193 9.00413 16.1122 8.87546 15.9749 8.7862C15.8376 8.69694 15.6765 8.65124 15.5128 8.65511Z" fill="#444444"/>
</svg>
