<svg width="22" height="22" viewBox="0 0 22 22" fill="none" xmlns="http://www.w3.org/2000/svg">
<path d="M11.0003 0.166748C5.02686 0.166748 0.166992 5.02662 0.166992 11.0001C0.166992 16.9735 5.02686 21.8334 11.0003 21.8334C16.9738 21.8334 21.8337 16.9735 21.8337 11.0001C21.8337 5.02662 16.9738 0.166748 11.0003 0.166748ZM11.0003 1.79175C16.0956 1.79175 20.2087 5.90484 20.2087 11.0001C20.2087 16.0953 16.0956 20.2084 11.0003 20.2084C5.90508 20.2084 1.79199 16.0953 1.79199 11.0001C1.79199 5.90484 5.90508 1.79175 11.0003 1.79175ZM15.047 7.74268C14.8359 7.74883 14.6356 7.83685 14.4884 7.98812L9.64616 12.8303L7.51229 10.6965C7.43742 10.6185 7.34775 10.5562 7.24852 10.5133C7.14929 10.4704 7.0425 10.4478 6.9344 10.4467C6.82631 10.4456 6.71908 10.4661 6.619 10.5069C6.51892 10.5478 6.428 10.6082 6.35156 10.6847C6.27512 10.7611 6.21471 10.852 6.17385 10.9521C6.13299 11.0522 6.11251 11.1594 6.11361 11.2675C6.1147 11.3756 6.13736 11.4824 6.18025 11.5816C6.22313 11.6808 6.28539 11.7705 6.36336 11.8454L9.0717 14.5537C9.22408 14.706 9.43071 14.7916 9.64616 14.7916C9.86161 14.7916 10.0682 14.706 10.2206 14.5537L15.6373 9.13704C15.7545 9.02289 15.8345 8.876 15.8669 8.71561C15.8992 8.55522 15.8824 8.38879 15.8186 8.23812C15.7548 8.08745 15.647 7.95954 15.5094 7.87114C15.3717 7.78274 15.2105 7.73797 15.047 7.74268Z" fill="black"/>
</svg>
