<svg width="33" height="34" viewBox="0 0 33 34" fill="none" xmlns="http://www.w3.org/2000/svg">
<path d="M16.6951 0.811035C7.76627 0.811035 0.501953 8.07536 0.501953 17.0042C0.501953 25.9331 7.76627 33.1974 16.6951 33.1974C25.624 33.1974 32.8883 25.9331 32.8883 17.0042C32.8883 8.07536 25.624 0.811035 16.6951 0.811035ZM16.6951 3.24001C24.3113 3.24001 30.4593 9.38807 30.4593 17.0042C30.4593 24.6204 24.3113 30.7684 16.6951 30.7684C9.07898 30.7684 2.93093 24.6204 2.93093 17.0042C2.93093 9.38807 9.07898 3.24001 16.6951 3.24001ZM16.6762 8.89023C16.3543 8.89526 16.0477 9.02782 15.8235 9.2588C15.5993 9.48978 15.476 9.80028 15.4806 10.1221V15.7897H9.81303C9.6521 15.7875 9.49232 15.8172 9.34297 15.8772C9.19363 15.9372 9.0577 16.0263 8.94309 16.1393C8.82848 16.2523 8.73747 16.387 8.67535 16.5354C8.61324 16.6839 8.58125 16.8433 8.58125 17.0042C8.58125 17.1652 8.61324 17.3245 8.67535 17.473C8.73747 17.6215 8.82848 17.7561 8.94309 17.8691C9.0577 17.9821 9.19363 18.0712 9.34297 18.1312C9.49232 18.1912 9.6521 18.221 9.81303 18.2187H15.4806V23.8863C15.4784 24.0473 15.5081 24.207 15.5681 24.3564C15.6281 24.5057 15.7172 24.6416 15.8302 24.7563C15.9432 24.8709 16.0779 24.9619 16.2264 25.024C16.3748 25.0861 16.5342 25.1181 16.6951 25.1181C16.8561 25.1181 17.0154 25.0861 17.1639 25.024C17.3124 24.9619 17.447 24.8709 17.56 24.7563C17.673 24.6416 17.7621 24.5057 17.8222 24.3564C17.8822 24.207 17.9119 24.0473 17.9096 23.8863V18.2187H23.5772C23.7382 18.221 23.898 18.1912 24.0473 18.1312C24.1966 18.0712 24.3326 17.9821 24.4472 17.8691C24.5618 17.7561 24.6528 17.6215 24.7149 17.473C24.777 17.3245 24.809 17.1652 24.809 17.0042C24.809 16.8433 24.777 16.6839 24.7149 16.5354C24.6528 16.387 24.5618 16.2523 24.4472 16.1393C24.3326 16.0263 24.1966 15.9372 24.0473 15.8772C23.898 15.8172 23.7382 15.7875 23.5772 15.7897H17.9096V10.1221C17.912 9.95956 17.8816 9.7982 17.8204 9.64758C17.7593 9.49696 17.6685 9.36016 17.5534 9.24528C17.4384 9.1304 17.3015 9.03978 17.1508 8.9788C17.0001 8.91781 16.8387 8.88769 16.6762 8.89023Z" fill="#444444"/>
</svg>
