<svg width="27" height="27" viewBox="0 0 27 27" fill="none" xmlns="http://www.w3.org/2000/svg">
<path d="M13.5002 0.583496C6.37796 0.583496 0.583496 6.37796 0.583496 13.5002C0.583496 20.6224 6.37796 26.4168 13.5002 26.4168C20.6224 26.4168 26.4168 20.6224 26.4168 13.5002C26.4168 6.37796 20.6224 0.583496 13.5002 0.583496ZM13.5002 2.521C19.5753 2.521 24.4793 7.42506 24.4793 13.5002C24.4793 19.5753 19.5753 24.4793 13.5002 24.4793C7.42506 24.4793 2.521 19.5753 2.521 13.5002C2.521 7.42506 7.42506 2.521 13.5002 2.521ZM13.485 7.02795C13.2283 7.03197 12.9837 7.1377 12.8049 7.32195C12.6261 7.50619 12.5277 7.75387 12.5314 8.01058V12.5314H8.01058C7.88221 12.5296 7.75476 12.5533 7.63563 12.6012C7.51651 12.6491 7.40808 12.7201 7.31666 12.8103C7.22524 12.9004 7.15265 13.0078 7.1031 13.1262C7.05355 13.2447 7.02803 13.3718 7.02803 13.5002C7.02803 13.6285 7.05355 13.7557 7.1031 13.8741C7.15265 13.9925 7.22524 14.0999 7.31666 14.1901C7.40808 14.2802 7.51651 14.3513 7.63563 14.3991C7.75476 14.447 7.88221 14.4707 8.01058 14.4689H12.5314V18.9897C12.5296 19.1181 12.5533 19.2456 12.6012 19.3647C12.6491 19.4838 12.7201 19.5922 12.8103 19.6837C12.9004 19.7751 13.0078 19.8477 13.1262 19.8972C13.2447 19.9468 13.3718 19.9723 13.5002 19.9723C13.6285 19.9723 13.7557 19.9468 13.8741 19.8972C13.9925 19.8477 14.0999 19.7751 14.1901 19.6837C14.2802 19.5922 14.3513 19.4838 14.3991 19.3647C14.447 19.2456 14.4707 19.1181 14.4689 18.9897V14.4689H18.9897C19.1181 14.4707 19.2456 14.447 19.3647 14.3991C19.4838 14.3513 19.5922 14.2802 19.6837 14.1901C19.7751 14.0999 19.8477 13.9925 19.8972 13.8741C19.9468 13.7557 19.9723 13.6285 19.9723 13.5002C19.9723 13.3718 19.9468 13.2447 19.8972 13.1262C19.8477 13.0078 19.7751 12.9004 19.6837 12.8103C19.5922 12.7201 19.4838 12.6491 19.3647 12.6012C19.2456 12.5533 19.1181 12.5296 18.9897 12.5314H14.4689V8.01058C14.4708 7.88092 14.4466 7.7522 14.3978 7.63206C14.349 7.51192 14.2766 7.4028 14.1848 7.31117C14.0931 7.21953 13.9838 7.14725 13.8636 7.0986C13.7434 7.04995 13.6147 7.02593 13.485 7.02795Z" fill="white"/>
</svg>
