<svg width="40" height="40" viewBox="0 0 40 40" fill="none" xmlns="http://www.w3.org/2000/svg">
<path d="M19.6951 3.44775C10.7662 3.44775 3.50195 10.712 3.50195 19.6409C3.50195 28.5699 10.7662 35.8341 19.6951 35.8341C28.6241 35.8341 35.8883 28.5699 35.8883 19.6409C35.8883 17.0427 35.2584 14.5945 34.1662 12.4157L32.3492 14.2327C33.0617 15.8933 33.4593 17.7212 33.4593 19.6409C33.4593 27.2307 27.2849 33.4051 19.6951 33.4051C12.1054 33.4051 5.93093 27.2307 5.93093 19.6409C5.93093 12.0512 12.1054 5.87673 19.6951 5.87673C23.2949 5.87673 26.5656 7.2768 29.0204 9.54708L30.7378 7.82972C27.8417 5.11979 23.9645 3.44775 19.6951 3.44775ZM32.2211 9.1043C31.9057 9.11349 31.6063 9.24507 31.3862 9.47117L17.671 23.1864L14.4814 19.9967C14.3695 19.8802 14.2354 19.7871 14.0871 19.723C13.9388 19.6589 13.7792 19.6251 13.6176 19.6234C13.456 19.6218 13.2957 19.6524 13.1461 19.7135C12.9965 19.7745 12.8606 19.8648 12.7464 19.9791C12.6321 20.0934 12.5418 20.2293 12.4807 20.3789C12.4197 20.5285 12.389 20.6887 12.3907 20.8503C12.3923 21.0119 12.4262 21.1715 12.4903 21.3198C12.5544 21.4682 12.6475 21.6022 12.764 21.7141L16.8123 25.7624C17.0401 25.9901 17.3489 26.118 17.671 26.118C17.993 26.118 18.3019 25.9901 18.5297 25.7624L33.1035 11.1885C33.2787 11.0179 33.3984 10.7983 33.4467 10.5586C33.4951 10.3188 33.4699 10.0701 33.3746 9.84487C33.2792 9.61965 33.1181 9.42846 32.9123 9.29632C32.7065 9.16418 32.4656 9.09726 32.2211 9.1043Z" fill="#444444"/>
</svg>
