<svg width="27" height="26" viewBox="0 0 27 26" fill="none" xmlns="http://www.w3.org/2000/svg">
<path d="M13.4999 0.5C6.37771 0.5 0.583252 6.10755 0.583252 13C0.583252 19.8925 6.37771 25.5 13.4999 25.5C20.6221 25.5 26.4166 19.8925 26.4166 13C26.4166 6.10755 20.6221 0.5 13.4999 0.5ZM13.4999 2.375C19.575 2.375 24.4791 7.12087 24.4791 13C24.4791 18.8791 19.575 23.625 13.4999 23.625C7.42481 23.625 2.52075 18.8791 2.52075 13C2.52075 7.12087 7.42481 2.375 13.4999 2.375ZM13.4999 6.75C10.9951 6.75 8.81549 8.14116 7.74544 10.1692L7.36829 9.26465C7.29766 9.08867 7.17378 8.93742 7.01286 8.83069C6.85194 8.72397 6.66147 8.66674 6.46639 8.6665C6.30649 8.66629 6.14902 8.70438 6.00802 8.77738C5.86703 8.85038 5.7469 8.95601 5.65835 9.08486C5.56979 9.21371 5.51557 9.36176 5.50051 9.51582C5.48546 9.66988 5.51004 9.82514 5.57206 9.96777L6.85364 13.0391C6.95 13.2696 7.13702 13.4536 7.37357 13.5507C7.61013 13.6477 7.87684 13.6499 8.11503 13.5566L11.2887 12.3164C11.4096 12.2724 11.5202 12.2054 11.614 12.1194C11.7078 12.0335 11.7829 11.9302 11.8348 11.8157C11.8867 11.7012 11.9145 11.5778 11.9164 11.4528C11.9183 11.3278 11.8944 11.2037 11.846 11.0878C11.7977 10.9718 11.7258 10.8664 11.6347 10.7778C11.5436 10.6891 11.4352 10.619 11.3156 10.5715C11.1961 10.524 11.068 10.5001 10.9388 10.5013C10.8096 10.5024 10.682 10.5285 10.5634 10.5781L9.47608 11.0029C10.2234 9.59096 11.7384 8.625 13.4999 8.625C14.8829 8.625 16.1083 9.21945 16.9385 10.1594C17.0199 10.2569 17.1206 10.3377 17.2348 10.3969C17.349 10.4561 17.4743 10.4925 17.6032 10.504C17.7322 10.5155 17.8623 10.5019 17.9857 10.4639C18.1092 10.4259 18.2235 10.3644 18.3219 10.2829C18.4204 10.2015 18.5009 10.1017 18.5589 9.9896C18.6168 9.87748 18.6509 9.75526 18.6591 9.63016C18.6674 9.50507 18.6496 9.37964 18.6069 9.26129C18.5642 9.14295 18.4974 9.03409 18.4105 8.94116C17.227 7.60113 15.4598 6.75 13.4999 6.75ZM19.2355 12.375C19.1152 12.3765 18.9963 12.3997 18.8848 12.4434L15.7111 13.6836C15.5902 13.7276 15.4796 13.7946 15.3858 13.8806C15.292 13.9666 15.217 14.0698 15.165 14.1843C15.1131 14.2988 15.0854 14.4222 15.0834 14.5472C15.0815 14.6722 15.1054 14.7963 15.1538 14.9122C15.2022 15.0282 15.274 15.1336 15.3651 15.2222C15.4562 15.3109 15.5647 15.381 15.6842 15.4285C15.8037 15.476 15.9318 15.4999 16.061 15.4987C16.1902 15.4976 16.3178 15.4715 16.4364 15.4219L17.5238 14.9971C16.7764 16.409 15.2614 17.375 13.4999 17.375C12.117 17.375 10.8915 16.7805 10.0614 15.8406C9.97998 15.7431 9.87922 15.6623 9.76504 15.6031C9.65086 15.5439 9.52558 15.5075 9.3966 15.496C9.26761 15.4845 9.13756 15.4981 9.01411 15.5361C8.89067 15.5741 8.77635 15.6356 8.67791 15.7171C8.57946 15.7985 8.4989 15.8983 8.44099 16.0104C8.38307 16.1225 8.34898 16.2447 8.34072 16.3698C8.33246 16.4949 8.3502 16.6204 8.3929 16.7387C8.4356 16.8571 8.50239 16.9659 8.58932 17.0588C9.77284 18.3989 11.54 19.25 13.4999 19.25C16.0048 19.25 18.1843 17.8588 19.2544 15.8308L19.6316 16.7354C19.6784 16.8506 19.7484 16.9558 19.8375 17.0447C19.9266 17.1337 20.0331 17.2046 20.1507 17.2535C20.2683 17.3025 20.3948 17.3283 20.5228 17.3296C20.6508 17.331 20.7778 17.3077 20.8964 17.2613C21.0151 17.2148 21.1231 17.1461 21.2141 17.059C21.3052 16.9719 21.3775 16.8683 21.4269 16.754C21.4763 16.6397 21.5018 16.5171 21.502 16.3932C21.5021 16.2693 21.4769 16.1466 21.4278 16.0322L20.1462 12.9609C20.073 12.7859 19.9469 12.6363 19.7844 12.5317C19.6219 12.4272 19.4306 12.3726 19.2355 12.375Z" fill="white"/>
</svg>
