<svg width="26" height="27" viewBox="0 0 26 27" fill="none" xmlns="http://www.w3.org/2000/svg">
<path d="M5.03894 0.950684C2.52641 0.950684 0.466797 3.0103 0.466797 5.52282V21.7012C0.466797 24.2137 2.52641 26.2733 5.03894 26.2733H21.2173C23.7298 26.2733 25.7894 24.2137 25.7894 21.7012V5.52282C25.7894 3.0103 23.7298 0.950684 21.2173 0.950684H5.03894ZM5.03894 3.0609H21.2173C22.589 3.0609 23.6792 4.15114 23.6792 5.52282V6.57793H2.57702V5.52282C2.57702 4.15114 3.66725 3.0609 5.03894 3.0609ZM2.57702 8.68815H23.6792V21.7012C23.6792 23.0729 22.589 24.1631 21.2173 24.1631H5.03894C3.66725 24.1631 2.57702 23.0729 2.57702 21.7012V8.68815ZM7.14916 11.5018C6.68277 11.5018 6.23548 11.687 5.9057 12.0168C5.57591 12.3466 5.39064 12.7939 5.39064 13.2603C5.39064 13.7267 5.57591 14.174 5.9057 14.5037C6.23548 14.8335 6.68277 15.0188 7.14916 15.0188C7.61554 15.0188 8.06283 14.8335 8.39261 14.5037C8.7224 14.174 8.90767 13.7267 8.90767 13.2603C8.90767 12.7939 8.7224 12.3466 8.39261 12.0168C8.06283 11.687 7.61554 11.5018 7.14916 11.5018ZM13.1281 11.5018C12.6617 11.5018 12.2144 11.687 11.8846 12.0168C11.5549 12.3466 11.3696 12.7939 11.3696 13.2603C11.3696 13.7267 11.5549 14.174 11.8846 14.5037C12.2144 14.8335 12.6617 15.0188 13.1281 15.0188C13.5945 15.0188 14.0418 14.8335 14.3716 14.5037C14.7014 14.174 14.8866 13.7267 14.8866 13.2603C14.8866 12.7939 14.7014 12.3466 14.3716 12.0168C14.0418 11.687 13.5945 11.5018 13.1281 11.5018ZM19.1071 11.5018C18.6407 11.5018 18.1934 11.687 17.8636 12.0168C17.5338 12.3466 17.3485 12.7939 17.3485 13.2603C17.3485 13.7267 17.5338 14.174 17.8636 14.5037C18.1934 14.8335 18.6407 15.0188 19.1071 15.0188C19.5734 15.0188 20.0207 14.8335 20.3505 14.5037C20.6803 14.174 20.8656 13.7267 20.8656 13.2603C20.8656 12.7939 20.6803 12.3466 20.3505 12.0168C20.0207 11.687 19.5734 11.5018 19.1071 11.5018ZM7.14916 17.8324C6.68277 17.8324 6.23548 18.0177 5.9057 18.3475C5.57591 18.6773 5.39064 19.1246 5.39064 19.5909C5.39064 20.0573 5.57591 20.5046 5.9057 20.8344C6.23548 21.1642 6.68277 21.3495 7.14916 21.3495C7.61554 21.3495 8.06283 21.1642 8.39261 20.8344C8.7224 20.5046 8.90767 20.0573 8.90767 19.5909C8.90767 19.1246 8.7224 18.6773 8.39261 18.3475C8.06283 18.0177 7.61554 17.8324 7.14916 17.8324ZM13.1281 17.8324C12.6617 17.8324 12.2144 18.0177 11.8846 18.3475C11.5549 18.6773 11.3696 19.1246 11.3696 19.5909C11.3696 20.0573 11.5549 20.5046 11.8846 20.8344C12.2144 21.1642 12.6617 21.3495 13.1281 21.3495C13.5945 21.3495 14.0418 21.1642 14.3716 20.8344C14.7014 20.5046 14.8866 20.0573 14.8866 19.5909C14.8866 19.1246 14.7014 18.6773 14.3716 18.3475C14.0418 18.0177 13.5945 17.8324 13.1281 17.8324Z" fill="black"/>
</svg>
