<svg width="26" height="26" viewBox="0 0 26 26" fill="none" xmlns="http://www.w3.org/2000/svg">
<path d="M4.6737 0.0681152C2.16118 0.0681152 0.101562 2.12773 0.101562 4.64026V20.8186C0.101562 23.3311 2.16118 25.3907 4.6737 25.3907H20.852C23.3646 25.3907 25.4242 23.3311 25.4242 20.8186V4.64026C25.4242 2.12773 23.3646 0.0681152 20.852 0.0681152H4.6737ZM4.6737 2.17833H20.852C22.2237 2.17833 23.314 3.26857 23.314 4.64026V5.69536H2.21178V4.64026C2.21178 3.26857 3.30202 2.17833 4.6737 2.17833ZM2.21178 7.80558H23.314V20.8186C23.314 22.1903 22.2237 23.2805 20.852 23.2805H4.6737C3.30202 23.2805 2.21178 22.1903 2.21178 20.8186V7.80558ZM8.54244 10.6192C6.67419 10.6192 5.29806 11.8024 5.0364 13.6348C4.9541 14.2116 5.35397 14.7464 5.93077 14.8287C6.50686 14.9117 7.04234 14.5118 7.12463 13.9343C7.20341 13.3849 7.51335 12.7294 8.54244 12.7294C9.31829 12.7294 9.94925 13.3604 9.94925 14.1362C9.94925 14.9121 9.31829 15.5431 8.54244 15.5431C6.84863 15.5431 5.02541 16.7536 5.02541 19.4118C5.02541 19.9949 5.49739 20.4669 6.08051 20.4669H11.0044C11.5875 20.4669 12.0595 19.9949 12.0595 19.4118C12.0595 18.8287 11.5875 18.3567 11.0044 18.3567H7.35269C7.6854 17.7187 8.30609 17.6533 8.54244 17.6533C10.4817 17.6533 12.0595 16.0755 12.0595 14.1362C12.0595 12.1969 10.4817 10.6192 8.54244 10.6192ZM14.5214 10.6192C13.9383 10.6192 13.4663 11.0912 13.4663 11.6743V16.5982C13.4663 17.1813 13.9383 17.6533 14.5214 17.6533H18.3901V19.4118C18.3901 19.9949 18.8621 20.4669 19.4452 20.4669C20.0284 20.4669 20.5003 19.9949 20.5003 19.4118V11.6743C20.5003 11.0912 20.0284 10.6192 19.4452 10.6192C18.8621 10.6192 18.3901 11.0912 18.3901 11.6743V15.5431H15.5765V11.6743C15.5765 11.0912 15.1045 10.6192 14.5214 10.6192Z" fill="#525252"/>
</svg>
