<svg width="27" height="29" viewBox="0 0 27 29" fill="none" xmlns="http://www.w3.org/2000/svg">
<path d="M4.91575 0.384277C2.59742 0.384277 0.695312 2.28638 0.695312 4.60471V5.65982C0.69534 5.93965 0.806513 6.208 1.00438 6.40587C1.20224 6.60373 1.4706 6.71491 1.75042 6.71493H3.50894V25.3552C3.50894 27.0909 4.93861 28.5205 6.67426 28.5205H13.3566V26.4103H6.67426C6.07883 26.4103 5.61916 25.9506 5.61916 25.3552V6.71493H18.6322C18.912 6.71491 19.1803 6.60373 19.3782 6.40587C19.5761 6.208 19.6873 5.93965 19.6873 5.65982V4.60471C19.6873 3.42712 20.6199 2.4945 21.7975 2.4945C22.9751 2.4945 23.9077 3.42712 23.9077 4.60471V25.3552C23.9077 25.9506 23.448 26.4103 22.8526 26.4103H21.7975V28.5205H22.8526C24.5883 28.5205 26.0179 27.0909 26.0179 25.3552V4.60471C26.0179 2.28638 24.1158 0.384277 21.7975 0.384277H4.91575ZM4.91575 2.4945H18.2296C17.8524 3.12559 17.5771 3.82117 17.5771 4.60471H2.80553C2.80553 3.42712 3.73815 2.4945 4.91575 2.4945ZM8.78448 9.52856C8.64467 9.52658 8.50586 9.55241 8.37611 9.60455C8.24637 9.65669 8.12828 9.73409 8.02871 9.83226C7.92914 9.93043 7.85007 10.0474 7.7961 10.1764C7.74214 10.3054 7.71435 10.4438 7.71435 10.5837C7.71435 10.7235 7.74214 10.8619 7.7961 10.9909C7.85007 11.1199 7.92914 11.2369 8.02871 11.3351C8.12828 11.4332 8.24637 11.5106 8.37611 11.5628C8.50586 11.6149 8.64467 11.6408 8.78448 11.6388H20.7424C20.8822 11.6408 21.021 11.6149 21.1508 11.5628C21.2805 11.5106 21.3986 11.4332 21.4982 11.3351C21.5977 11.2369 21.6768 11.1199 21.7308 10.9909C21.7847 10.8619 21.8125 10.7235 21.8125 10.5837C21.8125 10.4438 21.7847 10.3054 21.7308 10.1764C21.6768 10.0474 21.5977 9.93043 21.4982 9.83226C21.3986 9.73409 21.2805 9.65669 21.1508 9.60455C21.021 9.55241 20.8822 9.52658 20.7424 9.52856H8.78448ZM8.78448 13.0456C8.64467 13.0436 8.50586 13.0694 8.37611 13.1216C8.24637 13.1737 8.12828 13.2511 8.02871 13.3493C7.92914 13.4475 7.85007 13.5644 7.7961 13.6934C7.74214 13.8224 7.71435 13.9609 7.71435 14.1007C7.71435 14.2405 7.74214 14.379 7.7961 14.508C7.85007 14.637 7.92914 14.7539 8.02871 14.8521C8.12828 14.9503 8.24637 15.0277 8.37611 15.0798C8.50586 15.132 8.64467 15.1578 8.78448 15.1558H13.7083C13.8481 15.1578 13.987 15.132 14.1167 15.0798C14.2464 15.0277 14.3645 14.9503 14.4641 14.8521C14.5637 14.7539 14.6427 14.637 14.6967 14.508C14.7507 14.379 14.7785 14.2405 14.7785 14.1007C14.7785 13.9609 14.7507 13.8224 14.6967 13.6934C14.6427 13.5644 14.5637 13.4475 14.4641 13.3493C14.3645 13.2511 14.2464 13.1737 14.1167 13.1216C13.987 13.0694 13.8481 13.0436 13.7083 13.0456H8.78448ZM17.5771 15.8592C14.8702 15.8592 12.6532 18.0762 12.6532 20.7831C12.6532 22.4454 13.4912 23.9211 14.7634 24.8139V27.4654C14.7634 27.8417 14.9633 28.1891 15.2882 28.3776C15.6139 28.5669 16.0156 28.5689 16.342 28.3818L17.5771 27.6756L18.8121 28.3818C18.9739 28.4746 19.1548 28.5205 19.3356 28.5205C19.5185 28.5205 19.702 28.4733 19.8659 28.3776C20.1909 28.1891 20.3907 27.8417 20.3907 27.4654V24.8139C21.6629 23.9211 22.5009 22.4454 22.5009 20.7831C22.5009 18.0762 20.2839 15.8592 17.5771 15.8592ZM17.5771 17.9694C19.1435 17.9694 20.3907 19.2166 20.3907 20.7831C20.3907 22.3495 19.1435 23.5967 17.5771 23.5967C16.0106 23.5967 14.7634 22.3495 14.7634 20.7831C14.7634 19.2166 16.0106 17.9694 17.5771 17.9694Z" fill="#1585D6"/>
</svg>
