<svg width="29" height="30" viewBox="0 0 29 30" fill="none" xmlns="http://www.w3.org/2000/svg">
<path d="M14.3718 0.966797C6.61472 0.966797 0.303711 7.27781 0.303711 15.0349C0.303711 22.792 6.61472 29.103 14.3718 29.103C22.129 29.103 28.44 22.792 28.44 15.0349C28.44 7.27781 22.129 0.966797 14.3718 0.966797ZM14.3718 3.07702C20.9885 3.07702 26.3297 8.41825 26.3297 15.0349C26.3297 21.6516 20.9885 26.9928 14.3718 26.9928C7.75516 26.9928 2.41393 21.6516 2.41393 15.0349C2.41393 8.41825 7.75516 3.07702 14.3718 3.07702ZM10.1514 9.75938C9.68501 9.75938 9.23773 9.94465 8.90794 10.2744C8.57815 10.6042 8.39288 11.0515 8.39288 11.5179C8.39288 11.9843 8.57815 12.4316 8.90794 12.7613C9.23773 13.0911 9.68501 13.2764 10.1514 13.2764C10.6178 13.2764 11.0651 13.0911 11.3949 12.7613C11.7246 12.4316 11.9099 11.9843 11.9099 11.5179C11.9099 11.0515 11.7246 10.6042 11.3949 10.2744C11.0651 9.94465 10.6178 9.75938 10.1514 9.75938ZM18.5923 9.75938C18.1259 9.75938 17.6786 9.94465 17.3488 10.2744C17.019 10.6042 16.8338 11.0515 16.8338 11.5179C16.8338 11.9843 17.019 12.4316 17.3488 12.7613C17.6786 13.0911 18.1259 13.2764 18.5923 13.2764C19.0587 13.2764 19.5059 13.0911 19.8357 12.7613C20.1655 12.4316 20.3508 11.9843 20.3508 11.5179C20.3508 11.0515 20.1655 10.6042 19.8357 10.2744C19.5059 9.94465 19.0587 9.75938 18.5923 9.75938ZM8.58522 17.8376C8.3845 17.8342 8.18699 17.8882 8.01587 17.9931C7.84475 18.0981 7.70713 18.2497 7.61914 18.4301C7.53116 18.6106 7.49647 18.8124 7.51915 19.0118C7.54183 19.2113 7.62093 19.4002 7.74718 19.5562C9.29066 21.5177 11.6939 22.7724 14.3718 22.7724C17.0498 22.7724 19.453 21.5177 20.9965 19.5562C21.0844 19.4476 21.1498 19.3225 21.189 19.1884C21.2282 19.0542 21.2403 18.9136 21.2247 18.7747C21.2091 18.6359 21.166 18.5015 21.0981 18.3794C21.0301 18.2572 20.9385 18.1499 20.8287 18.0634C20.7189 17.977 20.593 17.9132 20.4583 17.8758C20.3237 17.8385 20.1829 17.8282 20.0443 17.8457C19.9056 17.8631 19.7718 17.9079 19.6506 17.9775C19.5294 18.0471 19.4232 18.1401 19.3383 18.2511C18.1807 19.7222 16.3927 20.6622 14.3718 20.6622C12.351 20.6622 10.563 19.7222 9.4054 18.2511C9.3087 18.1248 9.1847 18.022 9.04267 17.9504C8.90064 17.8788 8.74426 17.8402 8.58522 17.8376Z" fill="#4CAF50"/>
</svg>
