<svg width="1080" height="1080" viewBox="0 0 1080 1080" fill="none" xmlns="http://www.w3.org/2000/svg">
<circle cx="540" cy="540" r="540" fill="#4F50FA"/>
<g filter="url(#filter0_d_646_4545)">
<path d="M213.29 659H161.856V375.32H213.29V659ZM603.598 659H551.768V490.058L460.571 650.494C458.329 654.582 455.164 657.681 451.075 659.791C447.119 661.901 442.833 662.956 438.217 662.956C433.733 662.956 429.513 661.901 425.556 659.791C421.731 657.681 418.698 654.582 416.456 650.494L324.863 490.058V659H273.429V397.278C273.429 391.343 275.143 386.068 278.572 381.452C282.133 376.836 286.749 373.737 292.42 372.154C295.19 371.495 297.959 371.297 300.729 371.561C303.498 371.693 306.136 372.286 308.642 373.341C311.279 374.264 313.653 375.649 315.763 377.496C317.874 379.21 319.654 381.32 321.105 383.826L438.217 587.387L555.329 383.826C558.362 378.814 562.517 375.254 567.792 373.143C573.199 371.033 578.804 370.704 584.607 372.154C590.146 373.737 594.696 376.836 598.257 381.452C601.818 386.068 603.598 391.343 603.598 397.278V659ZM936.141 575.518C936.141 585.673 934.823 594.839 932.185 603.016C929.679 611.061 926.316 618.182 922.096 624.381C917.876 630.579 912.93 635.855 907.259 640.207C901.588 644.559 895.719 648.12 889.653 650.889C883.586 653.659 877.387 655.703 871.057 657.022C864.859 658.341 858.99 659 853.451 659H655.033V607.566H853.451C863.342 607.566 870.991 604.664 876.398 598.861C881.937 593.058 884.707 585.277 884.707 575.518C884.707 570.77 883.982 566.418 882.531 562.462C881.08 558.505 878.97 555.076 876.201 552.175C873.563 549.273 870.266 547.031 866.309 545.449C862.485 543.866 858.198 543.075 853.451 543.075H735.152C726.843 543.075 717.875 541.624 708.247 538.723C698.62 535.689 689.652 530.876 681.343 524.281C673.167 517.687 666.309 509.049 660.77 498.366C655.362 487.684 652.659 474.627 652.659 459.197C652.659 443.767 655.362 430.776 660.77 420.226C666.309 409.543 673.167 400.905 681.343 394.311C689.652 387.585 698.62 382.771 708.247 379.869C717.875 376.836 726.843 375.32 735.152 375.32H910.226V426.754H735.152C725.392 426.754 717.743 429.721 712.204 435.656C706.797 441.591 704.093 449.438 704.093 459.197C704.093 469.088 706.797 476.935 712.204 482.738C717.743 488.409 725.392 491.245 735.152 491.245H853.451H853.846C859.385 491.377 865.254 492.168 871.453 493.619C877.651 494.937 883.784 497.048 889.85 499.949C896.049 502.85 901.918 506.543 907.457 511.027C912.996 515.379 917.876 520.655 922.096 526.853C926.448 533.052 929.877 540.173 932.383 548.218C934.888 556.263 936.141 565.363 936.141 575.518Z" fill="white"/>
</g>
<path d="M168.757 696.638V729.507H166.65V696.638H168.757ZM187.952 703.567C190.98 703.567 193.446 704.504 195.35 706.377C197.255 708.219 198.207 710.965 198.207 714.618V729.507H196.146V714.758C196.146 711.73 195.382 709.42 193.852 707.828C192.323 706.205 190.247 705.394 187.625 705.394C184.878 705.394 182.677 706.268 181.023 708.016C179.399 709.764 178.588 712.355 178.588 715.788V729.507H176.481V704.082H178.588V709.467C179.306 707.563 180.492 706.111 182.146 705.113C183.832 704.082 185.767 703.567 187.952 703.567ZM214.269 727.213L223.634 704.082H225.881L215.346 729.507H213.145L202.61 704.082H204.904L214.269 727.213ZM253.425 715.086C253.425 716.21 253.393 717.052 253.331 717.614H231.371C231.434 719.893 231.933 721.813 232.869 723.374C233.806 724.934 235.039 726.105 236.568 726.885C238.098 727.666 239.768 728.056 241.579 728.056C244.076 728.056 246.167 727.447 247.853 726.23C249.538 724.981 250.6 723.295 251.037 721.173H253.237C252.738 723.764 251.458 725.871 249.398 727.494C247.338 729.086 244.731 729.882 241.579 729.882C239.206 729.882 237.084 729.351 235.211 728.29C233.338 727.229 231.871 725.715 230.809 723.748C229.748 721.75 229.217 719.425 229.217 716.771C229.217 714.118 229.732 711.808 230.762 709.842C231.824 707.875 233.291 706.377 235.164 705.347C237.037 704.285 239.175 703.755 241.579 703.755C244.013 703.755 246.12 704.285 247.9 705.347C249.71 706.377 251.084 707.766 252.02 709.514C252.956 711.231 253.425 713.088 253.425 715.086ZM251.318 715.882C251.411 713.634 251.006 711.73 250.1 710.169C249.226 708.609 248.024 707.454 246.495 706.705C244.965 705.924 243.311 705.534 241.532 705.534C239.752 705.534 238.098 705.924 236.568 706.705C235.07 707.454 233.837 708.609 232.869 710.169C231.933 711.73 231.434 713.634 231.371 715.882H251.318ZM268.268 729.882C265.427 729.882 263.101 729.258 261.291 728.009C259.512 726.76 258.513 724.981 258.294 722.671H260.448C260.604 724.326 261.353 725.637 262.696 726.604C264.069 727.572 265.926 728.056 268.268 728.056C270.203 728.056 271.732 727.572 272.856 726.604C274.011 725.605 274.589 724.388 274.589 722.952C274.589 721.953 274.277 721.142 273.652 720.517C273.059 719.862 272.31 719.362 271.405 719.019C270.499 718.676 269.266 718.301 267.706 717.895C265.833 717.396 264.319 716.912 263.164 716.444C262.009 715.944 261.026 715.211 260.214 714.243C259.402 713.275 258.997 711.98 258.997 710.357C258.997 709.171 259.356 708.078 260.074 707.079C260.792 706.049 261.79 705.237 263.07 704.644C264.35 704.051 265.802 703.755 267.425 703.755C270.078 703.755 272.216 704.426 273.84 705.768C275.494 707.079 276.384 708.905 276.508 711.246H274.401C274.308 709.561 273.652 708.187 272.435 707.126C271.217 706.065 269.532 705.534 267.378 705.534C265.567 705.534 264.069 706.002 262.883 706.939C261.697 707.875 261.104 709.014 261.104 710.357C261.104 711.543 261.431 712.511 262.087 713.26C262.774 713.978 263.601 714.54 264.569 714.945C265.567 715.32 266.878 715.726 268.502 716.163C270.281 716.631 271.701 717.099 272.763 717.567C273.855 718.004 274.776 718.66 275.525 719.534C276.274 720.377 276.649 721.516 276.649 722.952C276.649 724.263 276.29 725.449 275.572 726.511C274.854 727.572 273.855 728.399 272.575 728.992C271.295 729.585 269.86 729.882 268.268 729.882ZM286.204 705.909V722.718C286.204 724.591 286.547 725.886 287.234 726.604C287.921 727.291 289.138 727.634 290.886 727.634H293.743V729.507H290.559C288.342 729.507 286.703 728.992 285.642 727.962C284.612 726.901 284.097 725.153 284.097 722.718V705.909H280.258V704.082H284.097V697.621H286.204V704.082H293.743V705.909H286.204ZM329.36 703.567C332.263 703.567 334.635 704.504 336.477 706.377C338.319 708.219 339.239 710.965 339.239 714.618V729.507H337.179V714.758C337.179 711.73 336.446 709.42 334.979 707.828C333.543 706.205 331.56 705.394 329.032 705.394C326.41 705.394 324.303 706.299 322.711 708.109C321.119 709.92 320.323 712.542 320.323 715.976V729.507H318.263V714.758C318.263 711.73 317.529 709.42 316.062 707.828C314.626 706.205 312.644 705.394 310.116 705.394C307.493 705.394 305.386 706.299 303.794 708.109C302.202 709.92 301.407 712.542 301.407 715.976V729.507H299.299V704.082H301.407V709.608C302.124 707.61 303.279 706.111 304.871 705.113C306.495 704.082 308.352 703.567 310.443 703.567C312.753 703.567 314.735 704.176 316.39 705.394C318.075 706.58 319.23 708.343 319.855 710.685C320.448 708.343 321.603 706.58 323.32 705.394C325.036 704.176 327.05 703.567 329.36 703.567ZM369.613 715.086C369.613 716.21 369.582 717.052 369.52 717.614H347.56C347.622 719.893 348.122 721.813 349.058 723.374C349.994 724.934 351.227 726.105 352.757 726.885C354.287 727.666 355.957 728.056 357.767 728.056C360.264 728.056 362.356 727.447 364.041 726.23C365.727 724.981 366.788 723.295 367.225 721.173H369.426C368.926 723.764 367.647 725.871 365.586 727.494C363.526 729.086 360.92 729.882 357.767 729.882C355.395 729.882 353.272 729.351 351.399 728.29C349.526 727.229 348.059 725.715 346.998 723.748C345.936 721.75 345.406 719.425 345.406 716.771C345.406 714.118 345.921 711.808 346.951 709.842C348.012 707.875 349.479 706.377 351.352 705.347C353.225 704.285 355.363 703.755 357.767 703.755C360.202 703.755 362.309 704.285 364.088 705.347C365.899 706.377 367.272 707.766 368.209 709.514C369.145 711.231 369.613 713.088 369.613 715.086ZM367.506 715.882C367.6 713.634 367.194 711.73 366.289 710.169C365.415 708.609 364.213 707.454 362.683 706.705C361.154 705.924 359.499 705.534 357.72 705.534C355.941 705.534 354.287 705.924 352.757 706.705C351.259 707.454 350.026 708.609 349.058 710.169C348.122 711.73 347.622 713.634 347.56 715.882H367.506ZM387.453 703.567C390.481 703.567 392.947 704.504 394.851 706.377C396.755 708.219 397.707 710.965 397.707 714.618V729.507H395.647V714.758C395.647 711.73 394.882 709.42 393.352 707.828C391.823 706.205 389.747 705.394 387.125 705.394C384.378 705.394 382.177 706.268 380.523 708.016C378.9 709.764 378.088 712.355 378.088 715.788V729.507H375.981V704.082H378.088V709.467C378.806 707.563 379.992 706.111 381.647 705.113C383.332 704.082 385.268 703.567 387.453 703.567ZM408.291 705.909V722.718C408.291 724.591 408.635 725.886 409.321 726.604C410.008 727.291 411.225 727.634 412.973 727.634H415.83V729.507H412.646C410.429 729.507 408.791 728.992 407.729 727.962C406.699 726.901 406.184 725.153 406.184 722.718V705.909H402.345V704.082H406.184V697.621H408.291V704.082H415.83V705.909H408.291ZM465.27 697.34V729.507H463.163V701.741L450.802 729.507H449.116L436.708 701.741V729.507H434.601V697.34H436.849L449.959 726.745L463.07 697.34H465.27ZM471.7 716.771C471.7 714.149 472.215 711.855 473.245 709.889C474.306 707.922 475.758 706.408 477.599 705.347C479.472 704.285 481.595 703.755 483.967 703.755C486.652 703.755 488.93 704.41 490.803 705.721C492.676 707.032 493.987 708.702 494.736 710.731V704.082H496.844V729.507H494.736V722.812C493.987 724.872 492.661 726.573 490.757 727.915C488.884 729.226 486.621 729.882 483.967 729.882C481.595 729.882 479.472 729.351 477.599 728.29C475.758 727.197 474.306 725.668 473.245 723.701C472.215 721.704 471.7 719.394 471.7 716.771ZM494.736 716.771C494.736 714.555 494.268 712.604 493.332 710.919C492.427 709.202 491.178 707.891 489.586 706.986C487.994 706.049 486.215 705.581 484.248 705.581C482.188 705.581 480.377 706.033 478.817 706.939C477.256 707.813 476.039 709.093 475.165 710.778C474.29 712.464 473.853 714.462 473.853 716.771C473.853 719.081 474.29 721.079 475.165 722.765C476.039 724.45 477.256 725.746 478.817 726.651C480.409 727.556 482.219 728.009 484.248 728.009C486.215 728.009 487.994 727.556 489.586 726.651C491.209 725.715 492.473 724.404 493.379 722.718C494.284 721.001 494.736 719.019 494.736 716.771ZM515.987 703.567C519.015 703.567 521.481 704.504 523.385 706.377C525.289 708.219 526.241 710.965 526.241 714.618V729.507H524.181V714.758C524.181 711.73 523.416 709.42 521.887 707.828C520.357 706.205 518.281 705.394 515.659 705.394C512.912 705.394 510.712 706.268 509.057 708.016C507.434 709.764 506.623 712.355 506.623 715.788V729.507H504.516V704.082H506.623V709.467C507.34 707.563 508.527 706.111 510.181 705.113C511.867 704.082 513.802 703.567 515.987 703.567ZM532.377 716.771C532.377 714.149 532.892 711.855 533.923 709.889C534.984 707.922 536.435 706.408 538.277 705.347C540.15 704.285 542.273 703.755 544.645 703.755C547.329 703.755 549.608 704.41 551.481 705.721C553.354 707.032 554.665 708.702 555.414 710.731V704.082H557.521V729.507H555.414V722.812C554.665 724.872 553.338 726.573 551.434 727.915C549.561 729.226 547.298 729.882 544.645 729.882C542.273 729.882 540.15 729.351 538.277 728.29C536.435 727.197 534.984 725.668 533.923 723.701C532.892 721.704 532.377 719.394 532.377 716.771ZM555.414 716.771C555.414 714.555 554.946 712.604 554.01 710.919C553.104 709.202 551.856 707.891 550.264 706.986C548.672 706.049 546.892 705.581 544.926 705.581C542.866 705.581 541.055 706.033 539.494 706.939C537.934 707.813 536.716 709.093 535.842 710.778C534.968 712.464 534.531 714.462 534.531 716.771C534.531 719.081 534.968 721.079 535.842 722.765C536.716 724.45 537.934 725.746 539.494 726.651C541.086 727.556 542.897 728.009 544.926 728.009C546.892 728.009 548.672 727.556 550.264 726.651C551.887 725.715 553.151 724.404 554.056 722.718C554.962 721.001 555.414 719.019 555.414 716.771ZM576.15 703.755C578.834 703.755 581.113 704.41 582.986 705.721C584.859 707.001 586.17 708.656 586.919 710.685V704.082H589.026V730.303C589.026 732.644 588.511 734.689 587.481 736.437C586.451 738.216 585.062 739.574 583.314 740.511C581.566 741.478 579.615 741.962 577.461 741.962C574.277 741.962 571.639 741.197 569.548 739.668C567.456 738.138 566.083 736.078 565.427 733.487H567.534C568.159 735.516 569.329 737.124 571.046 738.31C572.763 739.527 574.901 740.136 577.461 740.136C579.24 740.136 580.848 739.73 582.284 738.919C583.72 738.138 584.843 736.999 585.655 735.501C586.498 734.034 586.919 732.301 586.919 730.303V722.858C586.17 724.887 584.843 726.573 582.939 727.915C581.066 729.226 578.803 729.882 576.15 729.882C573.777 729.882 571.655 729.351 569.782 728.29C567.94 727.197 566.489 725.668 565.427 723.701C564.397 721.704 563.882 719.394 563.882 716.771C563.882 714.149 564.397 711.855 565.427 709.889C566.489 707.922 567.94 706.408 569.782 705.347C571.655 704.285 573.777 703.755 576.15 703.755ZM586.919 716.771C586.919 714.555 586.451 712.604 585.514 710.919C584.609 709.202 583.361 707.891 581.769 706.986C580.177 706.049 578.397 705.581 576.431 705.581C574.371 705.581 572.56 706.033 570.999 706.939C569.439 707.813 568.221 709.093 567.347 710.778C566.473 712.464 566.036 714.462 566.036 716.771C566.036 719.081 566.473 721.079 567.347 722.765C568.221 724.45 569.439 725.746 570.999 726.651C572.591 727.556 574.402 728.009 576.431 728.009C578.397 728.009 580.177 727.556 581.769 726.651C583.392 725.715 584.656 724.404 585.561 722.718C586.466 721.001 586.919 719.019 586.919 716.771ZM619.595 715.086C619.595 716.21 619.563 717.052 619.501 717.614H597.541C597.603 719.893 598.103 721.813 599.039 723.374C599.976 724.934 601.209 726.105 602.738 726.885C604.268 727.666 605.938 728.056 607.748 728.056C610.246 728.056 612.337 727.447 614.023 726.23C615.708 724.981 616.77 723.295 617.207 721.173H619.407C618.908 723.764 617.628 725.871 615.568 727.494C613.508 729.086 610.901 729.882 607.748 729.882C605.376 729.882 603.253 729.351 601.38 728.29C599.507 727.229 598.04 725.715 596.979 723.748C595.918 721.75 595.387 719.425 595.387 716.771C595.387 714.118 595.902 711.808 596.932 709.842C597.994 707.875 599.461 706.377 601.334 705.347C603.207 704.285 605.345 703.755 607.748 703.755C610.183 703.755 612.29 704.285 614.069 705.347C615.88 706.377 617.253 707.766 618.19 709.514C619.126 711.231 619.595 713.088 619.595 715.086ZM617.487 715.882C617.581 713.634 617.175 711.73 616.27 710.169C615.396 708.609 614.194 707.454 612.665 706.705C611.135 705.924 609.481 705.534 607.702 705.534C605.922 705.534 604.268 705.924 602.738 706.705C601.24 707.454 600.007 708.609 599.039 710.169C598.103 711.73 597.603 713.634 597.541 715.882H617.487ZM656.023 703.567C658.926 703.567 661.298 704.504 663.14 706.377C664.982 708.219 665.902 710.965 665.902 714.618V729.507H663.842V714.758C663.842 711.73 663.109 709.42 661.642 707.828C660.206 706.205 658.223 705.394 655.695 705.394C653.073 705.394 650.966 706.299 649.374 708.109C647.782 709.92 646.986 712.542 646.986 715.976V729.507H644.926V714.758C644.926 711.73 644.192 709.42 642.725 707.828C641.289 706.205 639.307 705.394 636.779 705.394C634.156 705.394 632.049 706.299 630.457 708.109C628.865 709.92 628.069 712.542 628.069 715.976V729.507H625.962V704.082H628.069V709.608C628.787 707.61 629.942 706.111 631.534 705.113C633.158 704.082 635.015 703.567 637.106 703.567C639.416 703.567 641.398 704.176 643.053 705.394C644.738 706.58 645.893 708.343 646.518 710.685C647.111 708.343 648.266 706.58 649.983 705.394C651.699 704.176 653.713 703.567 656.023 703.567ZM696.276 715.086C696.276 716.21 696.245 717.052 696.183 717.614H674.223C674.285 719.893 674.784 721.813 675.721 723.374C676.657 724.934 677.89 726.105 679.42 726.885C680.949 727.666 682.619 728.056 684.43 728.056C686.927 728.056 689.019 727.447 690.704 726.23C692.39 724.981 693.451 723.295 693.888 721.173H696.089C695.589 723.764 694.31 725.871 692.249 727.494C690.189 729.086 687.583 729.882 684.43 729.882C682.058 729.882 679.935 729.351 678.062 728.29C676.189 727.229 674.722 725.715 673.661 723.748C672.599 721.75 672.069 719.425 672.069 716.771C672.069 714.118 672.584 711.808 673.614 709.842C674.675 707.875 676.142 706.377 678.015 705.347C679.888 704.285 682.026 703.755 684.43 703.755C686.865 703.755 688.972 704.285 690.751 705.347C692.562 706.377 693.935 707.766 694.871 709.514C695.808 711.231 696.276 713.088 696.276 715.086ZM694.169 715.882C694.263 713.634 693.857 711.73 692.952 710.169C692.078 708.609 690.876 707.454 689.346 706.705C687.817 705.924 686.162 705.534 684.383 705.534C682.604 705.534 680.949 705.924 679.42 706.705C677.922 707.454 676.689 708.609 675.721 710.169C674.784 711.73 674.285 713.634 674.223 715.882H694.169ZM714.116 703.567C717.144 703.567 719.61 704.504 721.514 706.377C723.418 708.219 724.37 710.965 724.37 714.618V729.507H722.31V714.758C722.31 711.73 721.545 709.42 720.015 707.828C718.486 706.205 716.41 705.394 713.788 705.394C711.041 705.394 708.84 706.268 707.186 708.016C705.563 709.764 704.751 712.355 704.751 715.788V729.507H702.644V704.082H704.751V709.467C705.469 707.563 706.655 706.111 708.31 705.113C709.995 704.082 711.931 703.567 714.116 703.567ZM734.954 705.909V722.718C734.954 724.591 735.298 725.886 735.984 726.604C736.671 727.291 737.888 727.634 739.636 727.634H742.493V729.507H739.309C737.092 729.507 735.454 728.992 734.392 727.962C733.362 726.901 732.847 725.153 732.847 722.718V705.909H729.008V704.082H732.847V697.621H734.954V704.082H742.493V705.909H734.954ZM770.769 729.835C768.647 729.835 766.789 729.461 765.197 728.711C763.605 727.962 762.357 726.948 761.452 725.668C760.577 724.388 760.078 722.968 759.953 721.407H762.154C762.404 723.124 763.2 724.653 764.542 725.996C765.915 727.338 767.991 728.009 770.769 728.009C772.392 728.009 773.797 727.712 774.983 727.119C776.201 726.526 777.137 725.715 777.793 724.685C778.448 723.654 778.776 722.515 778.776 721.266C778.776 719.675 778.386 718.41 777.605 717.474C776.856 716.537 775.904 715.835 774.749 715.367C773.625 714.899 772.096 714.399 770.161 713.868C768.038 713.307 766.321 712.745 765.01 712.183C763.73 711.621 762.638 710.763 761.732 709.608C760.858 708.421 760.421 706.814 760.421 704.785C760.421 703.224 760.827 701.804 761.639 700.524C762.482 699.213 763.668 698.183 765.197 697.434C766.727 696.684 768.491 696.31 770.488 696.31C773.391 696.31 775.733 697.028 777.512 698.464C779.291 699.9 780.352 701.663 780.696 703.755H778.448C778.261 702.912 777.84 702.053 777.184 701.179C776.56 700.305 775.654 699.587 774.468 699.026C773.313 698.433 771.924 698.136 770.301 698.136C768.116 698.136 766.274 698.745 764.776 699.962C763.278 701.148 762.528 702.74 762.528 704.738C762.528 706.33 762.919 707.61 763.699 708.577C764.479 709.514 765.431 710.232 766.555 710.731C767.71 711.2 769.255 711.683 771.191 712.183C773.345 712.776 775.046 713.353 776.294 713.915C777.574 714.446 778.651 715.304 779.525 716.491C780.43 717.646 780.883 719.222 780.883 721.22C780.883 722.687 780.493 724.076 779.712 725.387C778.932 726.698 777.777 727.775 776.248 728.618C774.749 729.429 772.923 729.835 770.769 729.835ZM807.043 704.082L792.247 741.447H790.094L794.823 729.507L784.147 704.082H786.441L795.993 727.166L804.89 704.082H807.043ZM820.22 729.882C817.38 729.882 815.054 729.258 813.244 728.009C811.464 726.76 810.465 724.981 810.247 722.671H812.401C812.557 724.326 813.306 725.637 814.648 726.604C816.022 727.572 817.879 728.056 820.22 728.056C822.155 728.056 823.685 727.572 824.809 726.604C825.964 725.605 826.541 724.388 826.541 722.952C826.541 721.953 826.229 721.142 825.605 720.517C825.012 719.862 824.263 719.362 823.357 719.019C822.452 718.676 821.219 718.301 819.658 717.895C817.785 717.396 816.271 716.912 815.116 716.444C813.961 715.944 812.978 715.211 812.167 714.243C811.355 713.275 810.949 711.98 810.949 710.357C810.949 709.171 811.308 708.078 812.026 707.079C812.744 706.049 813.743 705.237 815.023 704.644C816.303 704.051 817.754 703.755 819.377 703.755C822.031 703.755 824.169 704.426 825.792 705.768C827.446 707.079 828.336 708.905 828.461 711.246H826.354C826.26 709.561 825.605 708.187 824.387 707.126C823.17 706.065 821.484 705.534 819.33 705.534C817.52 705.534 816.022 706.002 814.835 706.939C813.649 707.875 813.056 709.014 813.056 710.357C813.056 711.543 813.384 712.511 814.04 713.26C814.726 713.978 815.553 714.54 816.521 714.945C817.52 715.32 818.831 715.726 820.454 716.163C822.234 716.631 823.654 717.099 824.715 717.567C825.808 718.004 826.729 718.66 827.478 719.534C828.227 720.377 828.601 721.516 828.601 722.952C828.601 724.263 828.242 725.449 827.525 726.511C826.807 727.572 825.808 728.399 824.528 728.992C823.248 729.585 821.812 729.882 820.22 729.882ZM838.157 705.909V722.718C838.157 724.591 838.5 725.886 839.187 726.604C839.873 727.291 841.091 727.634 842.839 727.634H845.695V729.507H842.511C840.295 729.507 838.656 728.992 837.595 727.962C836.565 726.901 836.05 725.153 836.05 722.718V705.909H832.21V704.082H836.05V697.621H838.157V704.082H845.695V705.909H838.157ZM874.148 715.086C874.148 716.21 874.117 717.052 874.055 717.614H852.095C852.157 719.893 852.657 721.813 853.593 723.374C854.53 724.934 855.763 726.105 857.292 726.885C858.822 727.666 860.492 728.056 862.302 728.056C864.799 728.056 866.891 727.447 868.576 726.23C870.262 724.981 871.323 723.295 871.76 721.173H873.961C873.462 723.764 872.182 725.871 870.122 727.494C868.061 729.086 865.455 729.882 862.302 729.882C859.93 729.882 857.807 729.351 855.934 728.29C854.061 727.229 852.594 725.715 851.533 723.748C850.472 721.75 849.941 719.425 849.941 716.771C849.941 714.118 850.456 711.808 851.486 709.842C852.547 707.875 854.015 706.377 855.887 705.347C857.76 704.285 859.899 703.755 862.302 703.755C864.737 703.755 866.844 704.285 868.623 705.347C870.434 706.377 871.807 707.766 872.744 709.514C873.68 711.231 874.148 713.088 874.148 715.086ZM872.041 715.882C872.135 713.634 871.729 711.73 870.824 710.169C869.95 708.609 868.748 707.454 867.219 706.705C865.689 705.924 864.035 705.534 862.255 705.534C860.476 705.534 858.822 705.924 857.292 706.705C855.794 707.454 854.561 708.609 853.593 710.169C852.657 711.73 852.157 713.634 852.095 715.882H872.041ZM910.577 703.567C913.48 703.567 915.852 704.504 917.694 706.377C919.535 708.219 920.456 710.965 920.456 714.618V729.507H918.396V714.758C918.396 711.73 917.662 709.42 916.195 707.828C914.759 706.205 912.777 705.394 910.249 705.394C907.627 705.394 905.52 706.299 903.928 708.109C902.336 709.92 901.54 712.542 901.54 715.976V729.507H899.48V714.758C899.48 711.73 898.746 709.42 897.279 707.828C895.843 706.205 893.861 705.394 891.332 705.394C888.71 705.394 886.603 706.299 885.011 708.109C883.419 709.92 882.623 712.542 882.623 715.976V729.507H880.516V704.082H882.623V709.608C883.341 707.61 884.496 706.111 886.088 705.113C887.711 704.082 889.569 703.567 891.66 703.567C893.97 703.567 895.952 704.176 897.607 705.394C899.292 706.58 900.447 708.343 901.072 710.685C901.665 708.343 902.82 706.58 904.536 705.394C906.253 704.176 908.267 703.567 910.577 703.567Z" fill="white"/>
<path d="M310.981 936.896C312.292 936.896 313.54 936.693 314.726 936.288C315.913 935.913 316.943 935.382 317.817 934.696C318.722 934.04 319.44 933.244 319.971 932.308C320.501 931.402 320.767 930.419 320.767 929.358C320.767 928.89 320.704 928.453 320.579 928.047C320.486 927.641 320.298 927.298 320.017 927.017C319.736 926.705 319.331 926.455 318.8 926.268C318.301 926.08 317.645 925.987 316.833 925.987H308.639V918.261C308.639 915.92 309.326 914.031 310.7 912.595C312.073 911.128 313.946 910.395 316.318 910.395H321.703L321.937 912.829H316.084C315.46 912.829 314.836 912.939 314.211 913.157C313.618 913.376 313.072 913.703 312.573 914.14C312.104 914.577 311.714 915.124 311.402 915.779C311.121 916.435 310.981 917.2 310.981 918.074V923.599H317.302C318.457 923.599 319.409 923.755 320.158 924.067C320.907 924.348 321.485 924.738 321.89 925.237C322.327 925.706 322.624 926.268 322.78 926.923C322.967 927.579 323.061 928.25 323.061 928.936C323.061 930.372 322.749 931.715 322.124 932.963C321.5 934.243 320.657 935.351 319.596 936.288C318.535 937.224 317.286 937.958 315.85 938.488C314.445 939.05 312.947 939.331 311.355 939.331H307.422C303.926 939.331 301.21 938.254 299.275 936.1C297.34 933.947 296.372 930.997 296.372 927.251V919.15H298.666V927.204C298.666 928.64 298.853 929.951 299.228 931.137C299.603 932.323 300.164 933.338 300.914 934.181C301.663 935.055 302.599 935.726 303.723 936.194C304.878 936.662 306.236 936.896 307.797 936.896H310.981ZM322.761 936.896H323.744C325.367 936.896 326.756 936.631 327.911 936.1C329.097 935.57 330.065 934.852 330.814 933.947C331.563 933.072 332.11 932.042 332.453 930.856C332.828 929.701 333.015 928.499 333.015 927.251V914.702H335.356V927.251C335.356 929.124 335.059 930.794 334.466 932.261C333.904 933.759 333.108 935.023 332.078 936.054C331.079 937.115 329.893 937.926 328.52 938.488C327.178 939.05 325.726 939.331 324.165 939.331H322.995L322.761 936.896ZM341.387 898.97H343.728V928H341.387V898.97ZM359.195 925.518C359.944 925.518 360.568 925.425 361.068 925.237C361.599 925.05 362.02 924.816 362.332 924.535C362.676 924.223 362.925 923.895 363.081 923.552C363.237 923.208 363.315 922.896 363.315 922.615C363.315 922.272 363.237 921.819 363.081 921.257C362.956 920.696 362.707 919.868 362.332 918.776C361.989 917.652 361.505 916.201 360.881 914.421C360.256 912.642 359.445 910.379 358.446 907.632L360.693 906.696L365.75 921.351C366.281 922.881 366.89 923.958 367.576 924.582C368.294 925.206 369.278 925.518 370.526 925.518H371.229C371.915 925.518 372.259 925.924 372.259 926.736C372.259 927.579 371.915 928 371.229 928H370.526C369.996 928 369.48 927.969 368.981 927.906C368.513 927.813 368.045 927.657 367.576 927.438C367.139 927.188 366.702 926.861 366.265 926.455C365.828 926.018 365.422 925.456 365.048 924.769C364.392 926.111 363.565 926.986 362.566 927.391C361.599 927.797 360.537 928 359.382 928H349.315L349.081 925.518H359.195ZM361.489 900.421H358.024V897.565H361.489V900.421ZM375.473 898.408L389.473 892.602L390.035 894.475L375.52 900.421L375.473 898.408ZM383.854 925.518C385.477 925.518 386.601 925.206 387.225 924.582C387.85 923.926 388.162 923.099 388.162 922.1C388.162 921.538 388.053 920.899 387.834 920.181C387.647 919.431 387.085 918.589 386.149 917.652L375.52 907.023V904.542L391.065 898.314L391.72 900.655L377.908 906.181L386.945 915.217C387.725 915.998 388.349 916.7 388.817 917.324C389.286 917.917 389.645 918.495 389.894 919.057C390.175 919.619 390.363 920.165 390.456 920.696C390.55 921.195 390.597 921.741 390.597 922.334C390.597 924.301 389.988 925.737 388.771 926.642C387.584 927.547 386.008 928 384.042 928H371.212C370.806 928 370.541 927.906 370.416 927.719C370.26 927.501 370.182 927.204 370.182 926.829C370.182 926.392 370.26 926.065 370.416 925.846C370.541 925.628 370.806 925.518 371.212 925.518H383.854ZM403.64 923.692C405.419 923.692 406.855 923.333 407.948 922.615C409.04 921.897 409.586 921.008 409.586 919.946V911.94H403.921C402.142 911.94 400.752 912.548 399.754 913.766C398.786 914.983 398.302 916.591 398.302 918.589C398.302 920.524 398.755 921.866 399.66 922.615C400.596 923.333 401.923 923.692 403.64 923.692ZM411.881 920.462C411.881 921.929 412.162 923.146 412.723 924.114C413.317 925.05 414.394 925.518 415.954 925.518H416.657C417.031 925.518 417.281 925.628 417.406 925.846C417.562 926.065 417.64 926.361 417.64 926.736C417.64 927.173 417.562 927.501 417.406 927.719C417.281 927.906 417.031 928 416.657 928H415.954C414.55 928 413.332 927.688 412.302 927.064C411.272 926.439 410.538 925.269 410.101 923.552C409.727 924.082 409.243 924.504 408.65 924.816C408.088 925.128 407.479 925.378 406.824 925.565C406.2 925.752 405.56 925.877 404.904 925.94C404.28 926.002 403.687 926.033 403.125 926.033C400.846 926.033 399.098 925.472 397.881 924.348C396.663 923.193 396.055 921.367 396.055 918.87C396.055 917.715 396.211 916.591 396.523 915.498C396.866 914.375 397.366 913.376 398.021 912.502C398.677 911.628 399.504 910.925 400.503 910.395C401.502 909.864 402.672 909.599 404.014 909.599H409.586V906.321H411.881V920.462ZM420.83 925.518C422.141 925.518 423.203 925.159 424.014 924.441C424.826 923.724 425.232 922.771 425.232 921.585V914.702H427.526V921.492C427.526 923.552 426.917 925.159 425.7 926.314C424.514 927.438 422.937 928 420.971 928H416.663C416.257 928 415.992 927.906 415.867 927.719C415.711 927.501 415.633 927.204 415.633 926.829C415.633 926.392 415.711 926.065 415.867 925.846C415.992 925.628 416.257 925.518 416.663 925.518H420.83ZM426.028 936.334H422.984V933.525H426.028V936.334ZM420.269 936.334H417.178V933.525H420.269V936.334ZM439.702 928C438.89 928 438.11 927.891 437.361 927.672C436.643 927.423 436.003 927.017 435.441 926.455C434.879 925.893 434.427 925.159 434.083 924.254C433.771 923.318 433.615 922.163 433.615 920.789V898.97H435.956V920.462C435.956 921.897 436.268 923.099 436.893 924.067C437.517 925.035 438.563 925.518 440.03 925.518H440.685C441.372 925.518 441.715 925.924 441.715 926.736C441.715 927.579 441.372 928 440.685 928H439.702ZM441.512 925.518C442.823 925.518 443.791 925.191 444.415 924.535C445.07 923.88 445.398 923.052 445.398 922.053V919.946C445.398 917.168 446.085 915.03 447.458 913.532C448.832 912.002 450.752 911.237 453.218 911.237C455.777 911.237 457.681 912.018 458.93 913.579C460.179 915.108 460.803 917.106 460.803 919.572C460.803 922.225 460.116 924.301 458.743 925.799C457.369 927.266 455.45 928 452.984 928C451.704 928 450.486 927.766 449.331 927.298C448.208 926.798 447.287 925.893 446.569 924.582C446.288 925.362 445.944 925.987 445.539 926.455C445.133 926.892 444.711 927.235 444.274 927.485C443.837 927.703 443.385 927.844 442.917 927.906C442.448 927.969 441.98 928 441.512 928H440.669C440.263 928 439.998 927.906 439.873 927.719C439.717 927.501 439.639 927.204 439.639 926.829C439.639 926.392 439.717 926.065 439.873 925.846C439.998 925.628 440.263 925.518 440.669 925.518H441.512ZM458.509 919.9C458.509 918.027 458.103 916.528 457.291 915.405C456.48 914.25 455.075 913.672 453.077 913.672C451.298 913.672 449.94 914.218 449.004 915.311C448.067 916.372 447.599 917.98 447.599 920.134C447.599 921.913 448.114 923.255 449.144 924.161C450.174 925.066 451.454 925.518 452.984 925.518C454.794 925.518 456.167 925.035 457.104 924.067C458.04 923.068 458.509 921.679 458.509 919.9ZM470.93 927.251C470.93 929.124 470.649 930.794 470.087 932.261C469.525 933.759 468.745 935.023 467.746 936.054C466.747 937.115 465.576 937.926 464.234 938.488C462.892 939.05 461.425 939.331 459.833 939.331H457.164L456.93 936.896H459.318C460.941 936.896 462.346 936.631 463.532 936.1C464.718 935.57 465.686 934.852 466.435 933.947C467.215 933.072 467.777 932.042 468.12 930.856C468.495 929.701 468.682 928.499 468.682 927.251V914.702H471.024V921.773C471.024 922.865 471.398 923.77 472.147 924.488C472.896 925.175 473.927 925.518 475.238 925.518H475.753C476.439 925.518 476.783 925.924 476.783 926.736C476.783 927.579 476.439 928 475.753 928H475.238C474.426 928 473.63 927.844 472.85 927.532C472.1 927.22 471.461 926.705 470.93 925.987V927.251ZM477.286 925.518C478.69 925.518 479.799 925.159 480.61 924.441C481.422 923.724 481.828 922.771 481.828 921.585V914.702H484.169V921.585C484.169 922.334 484.294 922.959 484.543 923.458C484.824 923.958 485.168 924.363 485.573 924.676C486.01 924.988 486.479 925.206 486.978 925.331C487.509 925.456 488.039 925.518 488.57 925.518C490.131 925.518 491.333 925.159 492.175 924.441C493.018 923.724 493.44 922.771 493.44 921.585V914.702H495.781V921.585C495.781 922.334 495.89 922.959 496.109 923.458C496.358 923.958 496.67 924.363 497.045 924.676C497.42 924.988 497.857 925.206 498.356 925.331C498.855 925.456 499.371 925.518 499.901 925.518C501.181 925.518 502.211 925.159 502.991 924.441C503.772 923.724 504.162 922.771 504.162 921.585V914.702H506.503V921.492C506.503 923.552 505.895 925.159 504.677 926.314C503.491 927.438 501.915 928 499.948 928C498.793 928 497.732 927.781 496.764 927.344C495.796 926.907 495.032 926.096 494.47 924.91C493.783 926.096 492.909 926.907 491.848 927.344C490.818 927.781 489.725 928 488.57 928C487.321 928 486.198 927.781 485.199 927.344C484.2 926.907 483.42 926.096 482.858 924.91C482.171 926.096 481.312 926.907 480.282 927.344C479.252 927.781 478.175 928 477.052 928H475.741C475.335 928 475.069 927.906 474.945 927.719C474.788 927.501 474.71 927.204 474.71 926.829C474.71 926.392 474.788 926.065 474.945 925.846C475.069 925.628 475.335 925.518 475.741 925.518H477.286ZM543.45 925.518C544.854 925.518 545.931 925.159 546.681 924.441C547.43 923.724 547.804 922.771 547.804 921.585V914.702H550.192V921.585C550.192 922.334 550.317 922.959 550.567 923.458C550.817 923.958 551.144 924.363 551.55 924.676C551.956 924.988 552.409 925.206 552.908 925.331C553.407 925.456 553.907 925.518 554.406 925.518H555.109C555.514 925.518 555.78 925.628 555.905 925.846C556.061 926.065 556.139 926.361 556.139 926.736C556.139 927.173 556.061 927.501 555.905 927.719C555.78 927.906 555.514 928 555.109 928H554.36C553.236 928 552.19 927.781 551.222 927.344C550.255 926.907 549.474 926.096 548.881 924.91C548.195 926.096 547.367 926.907 546.4 927.344C545.463 927.781 544.48 928 543.45 928H526.5C525.22 928 524.112 927.813 523.175 927.438C522.27 927.032 521.521 926.502 520.928 925.846C520.366 925.191 519.945 924.426 519.664 923.552C519.414 922.678 519.289 921.757 519.289 920.789V914.655H521.583V920.274C521.583 921.866 521.989 923.146 522.801 924.114C523.644 925.05 525.048 925.518 527.015 925.518H543.45ZM539.142 910.488H535.911V907.679H539.142V910.488ZM533.523 910.488H530.293V907.679H533.523V910.488ZM555.12 928C554.714 928 554.449 927.906 554.324 927.719C554.168 927.501 554.09 927.204 554.09 926.829C554.09 926.392 554.168 926.065 554.324 925.846C554.449 925.628 554.714 925.518 555.12 925.518H565.749C567.06 925.518 568.106 925.159 568.886 924.441C569.698 923.724 570.103 922.771 570.103 921.585V914.702H572.445V921.492C572.445 923.552 571.836 925.159 570.618 926.314C569.432 927.438 567.856 928 565.889 928H555.12ZM566.779 936.334H563.735V933.525H566.779V936.334ZM561.02 936.334H557.929V933.525H561.02V936.334ZM582.457 921.773C582.457 922.865 582.831 923.77 583.58 924.488C584.329 925.175 585.36 925.518 586.671 925.518H587.186C587.872 925.518 588.216 925.924 588.216 926.736C588.216 927.579 587.872 928 587.186 928H586.671C585.859 928 585.063 927.844 584.283 927.532C583.502 927.22 582.862 926.705 582.363 925.987V927.251C582.363 929.124 582.082 930.794 581.52 932.261C580.958 933.759 580.178 935.023 579.179 936.054C578.18 937.115 576.994 937.926 575.62 938.488C574.278 939.05 572.827 939.331 571.266 939.331H570.095L569.814 936.896H570.844C572.468 936.896 573.857 936.631 575.012 936.1C576.198 935.57 577.166 934.852 577.915 933.947C578.664 933.072 579.21 932.042 579.554 930.856C579.928 929.701 580.115 928.499 580.115 927.251V914.702H582.457V921.773ZM591.341 925.518C592.652 925.518 593.713 925.159 594.525 924.441C595.336 923.724 595.742 922.771 595.742 921.585V914.702H598.037V921.492C598.037 923.552 597.428 925.159 596.21 926.314C595.024 927.438 593.448 928 591.481 928H587.174C586.768 928 586.502 927.906 586.378 927.719C586.222 927.501 586.143 927.204 586.143 926.829C586.143 926.392 586.222 926.065 586.378 925.846C586.502 925.628 586.768 925.518 587.174 925.518H591.341ZM596.538 936.334H593.495V933.525H596.538V936.334ZM590.779 936.334H587.689V933.525H590.779V936.334ZM612.834 925.518C613.584 925.518 614.208 925.425 614.707 925.237C615.238 925.05 615.659 924.816 615.972 924.535C616.315 924.223 616.565 923.895 616.721 923.552C616.877 923.208 616.955 922.896 616.955 922.615C616.955 922.272 616.877 921.819 616.721 921.257C616.596 920.696 616.346 919.868 615.972 918.776C615.628 917.652 615.144 916.201 614.52 914.421C613.896 912.642 613.084 910.379 612.085 907.632L614.333 906.696L619.39 921.351C619.92 922.881 620.529 923.958 621.216 924.582C621.934 925.206 622.917 925.518 624.166 925.518H624.868C625.555 925.518 625.898 925.924 625.898 926.736C625.898 927.579 625.555 928 624.868 928H624.166C623.635 928 623.12 927.969 622.62 927.906C622.152 927.813 621.684 927.657 621.216 927.438C620.779 927.188 620.342 926.861 619.905 926.455C619.468 926.018 619.062 925.456 618.687 924.769C618.032 926.111 617.205 926.986 616.206 927.391C615.238 927.797 614.177 928 613.022 928H602.955L602.721 925.518H612.834ZM625.694 925.518C627.005 925.518 627.973 925.191 628.597 924.535C629.253 923.88 629.581 923.052 629.581 922.053V919.946C629.581 917.168 630.267 915.03 631.641 913.532C633.014 912.002 634.934 911.237 637.4 911.237C639.96 911.237 641.864 912.018 643.112 913.579C644.361 915.108 644.985 917.106 644.985 919.572C644.985 922.225 644.299 924.301 642.925 925.799C641.552 927.266 639.632 928 637.166 928C635.886 928 634.669 927.766 633.514 927.298C632.39 926.798 631.469 925.893 630.751 924.582C630.47 925.362 630.127 925.987 629.721 926.455C629.315 926.892 628.894 927.235 628.457 927.485C628.02 927.703 627.567 927.844 627.099 927.906C626.631 927.969 626.162 928 625.694 928H624.851C624.446 928 624.18 927.906 624.055 927.719C623.899 927.501 623.821 927.204 623.821 926.829C623.821 926.392 623.899 926.065 624.055 925.846C624.18 925.628 624.446 925.518 624.851 925.518H625.694ZM642.691 919.9C642.691 918.027 642.285 916.528 641.474 915.405C640.662 914.25 639.257 913.672 637.259 913.672C635.48 913.672 634.122 914.218 633.186 915.311C632.249 916.372 631.781 917.98 631.781 920.134C631.781 921.913 632.296 923.255 633.326 924.161C634.356 925.066 635.636 925.518 637.166 925.518C638.976 925.518 640.35 925.035 641.286 924.067C642.223 923.068 642.691 921.679 642.691 919.9ZM681.951 921.023C681.951 922.678 682.31 923.848 683.028 924.535C683.777 925.191 684.683 925.518 685.744 925.518H686.68C687.086 925.518 687.351 925.628 687.476 925.846C687.632 926.065 687.71 926.361 687.71 926.736C687.71 927.173 687.632 927.501 687.476 927.719C687.351 927.906 687.086 928 686.68 928H685.744C685.244 928 684.761 927.969 684.292 927.906C683.824 927.813 683.372 927.657 682.935 927.438C682.529 927.22 682.139 926.907 681.764 926.502C681.389 926.065 681.062 925.518 680.781 924.863C680.406 925.518 679.938 926.049 679.376 926.455C678.845 926.861 678.283 927.188 677.69 927.438C677.097 927.657 676.489 927.813 675.864 927.906C675.271 927.969 674.694 928 674.132 928C672.009 928 670.292 927.438 668.981 926.314C667.701 925.159 667.062 923.489 667.062 921.304V918.214C667.062 917.153 667.186 916.247 667.436 915.498C667.717 914.718 668.232 914 668.981 913.344H666.687C664.533 913.344 662.894 913.922 661.771 915.077C660.678 916.201 660.132 917.605 660.132 919.291V939.331H657.837V919.244C657.837 918.152 658.025 917.106 658.399 916.107C658.805 915.108 659.383 914.234 660.132 913.485C660.881 912.705 661.817 912.096 662.941 911.659C664.065 911.191 665.376 910.956 666.874 910.956H675.349C676.567 910.956 677.597 911.144 678.44 911.518C679.282 911.862 679.953 912.33 680.453 912.923C680.984 913.485 681.358 914.14 681.577 914.89C681.826 915.639 681.951 916.388 681.951 917.137V921.023ZM674.413 925.518C676.005 925.518 677.269 925.175 678.205 924.488C679.173 923.77 679.657 922.662 679.657 921.164V917.652C679.657 916.528 679.314 915.545 678.627 914.702C677.971 913.828 676.91 913.391 675.443 913.391H673.523C672.056 913.391 670.979 913.828 670.292 914.702C669.637 915.576 669.309 916.638 669.309 917.886V920.977C669.309 922.475 669.762 923.614 670.667 924.395C671.572 925.144 672.821 925.518 674.413 925.518ZM690.324 925.518C691.729 925.518 692.806 925.159 693.555 924.441C694.336 923.724 694.726 922.771 694.726 921.585V914.702H697.067V921.585C697.067 922.334 697.192 922.959 697.442 923.458C697.691 923.958 698.003 924.363 698.378 924.676C698.784 924.988 699.236 925.206 699.736 925.331C700.235 925.456 700.735 925.518 701.234 925.518H702.779C703.497 925.518 703.856 925.924 703.856 926.736C703.856 927.579 703.497 928 702.779 928H701.187C700.095 928 699.065 927.781 698.097 927.344C697.129 926.907 696.349 926.096 695.756 924.91C695.069 926.096 694.258 926.907 693.321 927.344C692.385 927.781 691.386 928 690.324 928H686.672C686.267 928 686.001 927.906 685.876 927.719C685.72 927.501 685.642 927.204 685.642 926.829C685.642 926.392 685.72 926.065 685.876 925.846C686.001 925.628 686.267 925.518 686.672 925.518H690.324ZM699.876 908.522H696.646V905.712H699.876V908.522ZM694.258 908.522H691.027V905.712H694.258V908.522ZM704.313 925.518C705.718 925.518 706.826 925.159 707.637 924.441C708.449 923.724 708.855 922.771 708.855 921.585V914.702H711.196V921.585C711.196 922.334 711.321 922.959 711.57 923.458C711.851 923.958 712.195 924.363 712.6 924.676C713.037 924.988 713.506 925.206 714.005 925.331C714.536 925.456 715.066 925.518 715.597 925.518C717.158 925.518 718.36 925.159 719.203 924.441C720.045 923.724 720.467 922.771 720.467 921.585V914.702H722.808V921.585C722.808 922.334 722.917 922.959 723.136 923.458C723.385 923.958 723.698 924.363 724.072 924.676C724.447 924.988 724.884 925.206 725.383 925.331C725.883 925.456 726.398 925.518 726.928 925.518C728.271 925.518 729.316 925.159 730.065 924.441C730.815 923.724 731.189 922.771 731.189 921.585V914.702H733.53V921.585C733.53 922.334 733.655 922.959 733.905 923.458C734.155 923.958 734.467 924.363 734.841 924.676C735.247 924.988 735.7 925.206 736.199 925.331C736.699 925.456 737.198 925.518 737.698 925.518H738.494C739.18 925.518 739.524 925.924 739.524 926.736C739.524 927.579 739.18 928 738.494 928H737.698C736.574 928 735.528 927.781 734.56 927.344C733.593 926.907 732.812 926.096 732.219 924.91C731.533 926.096 730.705 926.907 729.738 927.344C728.801 927.781 727.865 928 726.928 928C725.773 928 724.712 927.781 723.744 927.344C722.808 926.907 722.059 926.096 721.497 924.91C720.81 926.096 719.936 926.907 718.875 927.344C717.845 927.781 716.752 928 715.597 928C714.349 928 713.225 927.781 712.226 927.344C711.227 926.907 710.447 926.096 709.885 924.91C709.198 926.096 708.34 926.907 707.309 927.344C706.279 927.781 705.202 928 704.079 928H702.768C702.362 928 702.097 927.906 701.972 927.719C701.816 927.501 701.738 927.204 701.738 926.829C701.738 926.392 701.816 926.065 701.972 925.846C702.097 925.628 702.362 925.518 702.768 925.518H704.313ZM742.131 925.518C743.536 925.518 744.613 925.159 745.362 924.441C746.143 923.724 746.533 922.771 746.533 921.585V914.702H748.874V921.585C748.874 922.334 748.999 922.959 749.249 923.458C749.498 923.958 749.81 924.363 750.185 924.676C750.591 924.988 751.043 925.206 751.543 925.331C752.042 925.456 752.542 925.518 753.041 925.518H754.586C755.304 925.518 755.663 925.924 755.663 926.736C755.663 927.579 755.304 928 754.586 928H752.994C751.902 928 750.872 927.781 749.904 927.344C748.936 926.907 748.156 926.096 747.563 924.91C746.876 926.096 746.065 926.907 745.128 927.344C744.192 927.781 743.193 928 742.131 928H738.479C738.073 928 737.808 927.906 737.683 927.719C737.527 927.501 737.449 927.204 737.449 926.829C737.449 926.392 737.527 926.065 737.683 925.846C737.808 925.628 738.073 925.518 738.479 925.518H742.131ZM750.653 936.334H747.61V933.525H750.653V936.334ZM744.894 936.334H741.804V933.525H744.894V936.334ZM756.12 925.518C757.524 925.518 758.633 925.159 759.444 924.441C760.256 923.724 760.662 922.771 760.662 921.585V914.702H763.003V921.585C763.003 922.334 763.128 922.959 763.377 923.458C763.658 923.958 764.002 924.363 764.407 924.676C764.844 924.988 765.313 925.206 765.812 925.331C766.343 925.456 766.873 925.518 767.404 925.518C768.965 925.518 770.167 925.159 771.009 924.441C771.852 923.724 772.274 922.771 772.274 921.585V914.702H774.615V921.585C774.615 922.334 774.724 922.959 774.943 923.458C775.192 923.958 775.504 924.363 775.879 924.676C776.254 924.988 776.691 925.206 777.19 925.331C777.69 925.456 778.205 925.518 778.735 925.518C780.015 925.518 781.045 925.159 781.826 924.441C782.606 923.724 782.996 922.771 782.996 921.585V914.702H785.337V921.492C785.337 923.552 784.729 925.159 783.511 926.314C782.325 927.438 780.749 928 778.782 928C777.627 928 776.566 927.781 775.598 927.344C774.63 926.907 773.866 926.096 773.304 924.91C772.617 926.096 771.743 926.907 770.682 927.344C769.652 927.781 768.559 928 767.404 928C766.156 928 765.032 927.781 764.033 927.344C763.034 926.907 762.254 926.096 761.692 924.91C761.005 926.096 760.147 926.907 759.116 927.344C758.086 927.781 757.009 928 755.886 928H754.575C754.169 928 753.904 927.906 753.779 927.719C753.623 927.501 753.545 927.204 753.545 926.829C753.545 926.392 753.623 926.065 753.779 925.846C753.904 925.628 754.169 925.518 754.575 925.518H756.12Z" fill="white"/>
<defs>
<filter id="filter0_d_646_4545" x="157.856" y="369.978" width="782.285" height="300.978" filterUnits="userSpaceOnUse" color-interpolation-filters="sRGB">
<feFlood flood-opacity="0" result="BackgroundImageFix"/>
<feColorMatrix in="SourceAlpha" type="matrix" values="0 0 0 0 0 0 0 0 0 0 0 0 0 0 0 0 0 0 127 0" result="hardAlpha"/>
<feOffset dy="4"/>
<feGaussianBlur stdDeviation="2"/>
<feComposite in2="hardAlpha" operator="out"/>
<feColorMatrix type="matrix" values="0 0 0 0 0 0 0 0 0 0 0 0 0 0 0 0 0 0 0.25 0"/>
<feBlend mode="normal" in2="BackgroundImageFix" result="effect1_dropShadow_646_4545"/>
<feBlend mode="normal" in="SourceGraphic" in2="effect1_dropShadow_646_4545" result="shape"/>
</filter>
</defs>
</svg>
