<svg width="23" height="22" viewBox="0 0 23 22" fill="none" xmlns="http://www.w3.org/2000/svg">
<path d="M17.7618 0.961024C13.6357 -1.16893 8.56522 0.505236 6.25927 4.49926L4.1742 8.11071L1.32739 9.99993C1.32229 10.0034 1.31722 10.007 1.31219 10.0106C0.131795 10.8314 0.208351 12.6796 1.45377 13.3987L5.67667 15.8368C4.73108 17.4746 5.29902 19.5941 6.93682 20.5397C8.57462 21.4853 10.6942 20.9174 11.6398 19.2796L15.8617 21.7171C17.1071 22.4361 18.7469 21.5793 18.8676 20.1462C18.8682 20.1401 18.8688 20.1339 18.8693 20.1277L19.082 16.7177L21.2763 12.917C23.7167 8.69006 22.1443 3.22347 17.7618 0.961024ZM16.9721 2.4902C20.5043 4.31368 21.7473 8.65843 19.7855 12.0563L17.4903 16.0317C17.4237 16.1468 17.3847 16.2758 17.3763 16.4085L17.1515 20.003C17.1303 20.2459 16.9336 20.3482 16.7224 20.2263L2.31447 11.9079C2.10331 11.786 2.09425 11.5651 2.29424 11.4252L2.2948 11.4242L5.29483 9.43321C5.40556 9.35959 5.49773 9.26132 5.56411 9.14611L7.75005 5.35996C9.61505 2.12968 13.6856 0.79369 16.9721 2.4902ZM7.16744 16.6975L10.149 18.4189C9.66869 19.2508 8.62944 19.5293 7.79752 19.0489C6.9656 18.5686 6.68713 17.5294 7.16744 16.6975Z" fill="white"/>
</svg>
