<svg width="22" height="22" viewBox="0 0 22 22" fill="none" xmlns="http://www.w3.org/2000/svg">
<path d="M7.59477 0.00150076C7.24739 -0.00967051 6.88706 0.0403368 6.52232 0.191517C5.54964 0.594259 5.11045 1.47875 4.76925 2.21621C4.42806 2.95367 4.13301 3.62525 3.8793 3.87912H3.87823C3.59828 4.1594 2.92563 4.46096 2.19386 4.80236C1.4621 5.14376 0.588786 5.56457 0.191738 6.52324C-0.205157 7.48198 0.115358 8.39777 0.391414 9.15662C0.66747 9.91548 0.929415 10.6037 0.929251 10.9999C0.929097 11.359 0.664159 12.0428 0.3839 12.8056C0.10364 13.5684 -0.211404 14.505 0.191738 15.4776C0.594477 16.4503 1.47896 16.8895 2.21641 17.2307C2.95386 17.5719 3.62436 17.8669 3.87823 18.1207V18.1217H3.8793C4.15958 18.4017 4.46006 19.0743 4.80146 19.8061C5.14286 20.5379 5.56366 21.4112 6.52232 21.8083C7.48105 22.2052 8.39683 21.8846 9.15568 21.6086C9.91453 21.3325 10.6038 21.0706 11 21.0707C11.3591 21.0709 12.0429 21.3358 12.8057 21.6161C13.5685 21.8964 14.504 22.2114 15.4766 21.8083C16.4493 21.4055 16.8885 20.521 17.2297 19.7836C17.5709 19.0461 17.867 18.3756 18.1207 18.1217V18.1207C18.4006 17.8404 19.0733 17.5399 19.8051 17.1985C20.5368 16.8571 21.4112 16.4363 21.8083 15.4776C22.2052 14.5189 21.8846 13.6031 21.6086 12.8442C21.3325 12.0854 21.0695 11.3961 21.0697 10.9999C21.0698 10.6408 21.3358 9.957 21.6161 9.1942C21.8964 8.4314 22.2114 7.49588 21.8083 6.52324C21.4055 5.55055 20.521 5.11135 19.7836 4.77015C19.0461 4.42896 18.3746 4.13283 18.1207 3.87912C17.8404 3.59916 17.5389 2.92651 17.1975 2.19474C16.8561 1.46296 16.4353 0.588568 15.4766 0.191517C14.5179 -0.205382 13.6021 0.115136 12.8432 0.391195C12.0844 0.667253 11.3962 0.930274 11 0.93011C10.6409 0.929957 9.95712 0.663942 9.19433 0.38368C8.81293 0.243549 8.38821 0.0949581 7.93723 0.0315598C7.82448 0.0157102 7.71057 0.00522448 7.59477 0.00150076ZM7.40905 1.66334C7.70355 1.64886 8.11389 1.7438 8.62536 1.93172C9.30731 2.18228 10.074 2.57867 10.9989 2.57906C11.9334 2.57945 12.7201 2.19013 13.4068 1.94031C14.0931 1.69067 14.5931 1.61083 14.8454 1.71487C15.097 1.8191 15.3941 2.22918 15.7031 2.89146C16.012 3.55352 16.2941 4.38459 16.9548 5.04498C17.609 5.69874 18.4318 5.96161 19.0912 6.26666C19.7505 6.57172 20.166 6.8663 20.2849 7.1534V7.15448C20.4039 7.44163 20.3186 7.94434 20.0681 8.6263C19.8175 9.30826 19.4211 10.075 19.4207 10.9999C19.4204 11.9344 19.8097 12.7211 20.0595 13.4078C20.3093 14.0946 20.3893 14.5942 20.2849 14.8464C20.1807 15.098 19.7706 15.3952 19.1083 15.7041C18.4463 16.013 17.6152 16.2951 16.9548 16.9559C16.3011 17.61 16.0382 18.4318 15.7332 19.0911C15.4281 19.7505 15.1335 20.166 14.8464 20.2849H14.8454C14.5582 20.4039 14.0555 20.3197 13.3736 20.0691C12.6916 19.8186 11.9249 19.4222 11 19.4218C10.0655 19.4214 9.2788 19.8096 8.59208 20.0595C7.90536 20.3093 7.4057 20.3893 7.15356 20.2849C6.9019 20.1807 6.60478 19.7706 6.29581 19.1083C5.98684 18.446 5.70534 17.6153 5.04408 16.9548C4.38993 16.301 3.56817 16.0392 2.90883 15.7342C2.2495 15.4291 1.83395 15.1335 1.71507 14.8464C1.59605 14.5592 1.68029 14.0565 1.93085 13.3746C2.18141 12.6926 2.57779 11.9259 2.57819 11.001C2.57857 10.0664 2.19033 9.27975 1.94051 8.59302C1.69088 7.90679 1.61104 7.4068 1.71507 7.15448C1.8193 6.90282 2.22939 6.6057 2.89166 6.29672C3.55393 5.98775 4.38466 5.70625 5.04515 5.04498C5.6989 4.39082 5.9607 3.56798 6.26575 2.90864C6.5708 2.2493 6.86645 1.83374 7.15356 1.71487C7.22534 1.68511 7.31089 1.66816 7.40905 1.66334ZM15.1062 6.04551C14.8921 6.05175 14.6888 6.14108 14.5394 6.29457L6.29473 14.5393C6.21561 14.6153 6.15244 14.7063 6.10892 14.807C6.0654 14.9077 6.04241 15.0161 6.0413 15.1257C6.04018 15.2354 6.06097 15.3442 6.10243 15.4458C6.14389 15.5473 6.2052 15.6396 6.28276 15.7172C6.36032 15.7947 6.45259 15.856 6.55414 15.8975C6.65569 15.939 6.7645 15.9598 6.87419 15.9586C6.98387 15.9575 7.09224 15.9345 7.19293 15.891C7.29362 15.8475 7.38461 15.7843 7.46058 15.7052L15.7053 7.46044C15.8242 7.34459 15.9054 7.19554 15.9382 7.03279C15.9711 6.87003 15.954 6.70116 15.8893 6.54826C15.8245 6.39537 15.7152 6.26557 15.5755 6.17587C15.4357 6.08617 15.2722 6.04073 15.1062 6.04551ZM7.97695 6.05303C7.46674 6.05303 6.97742 6.25571 6.61665 6.61649C6.25587 6.97727 6.05319 7.46659 6.05319 7.97681C6.05319 8.48703 6.25587 8.97635 6.61665 9.33712C6.97742 9.6979 7.46674 9.90059 7.97695 9.90059C8.48716 9.90059 8.97648 9.6979 9.33725 9.33712C9.69803 8.97635 9.90071 8.48703 9.90071 7.97681C9.90071 7.46659 9.69803 6.97727 9.33725 6.61649C8.97648 6.25571 8.48716 6.05303 7.97695 6.05303ZM14.023 12.0992C13.5128 12.0992 13.0235 12.3019 12.6627 12.6627C12.302 13.0234 12.0993 13.5128 12.0993 14.023C12.0993 14.5332 12.302 15.0225 12.6627 15.3833C13.0235 15.7441 13.5128 15.9467 14.023 15.9467C14.5333 15.9467 15.0226 15.7441 15.3834 15.3833C15.7441 15.0225 15.9468 14.5332 15.9468 14.023C15.9468 13.5128 15.7441 13.0234 15.3834 12.6627C15.0226 12.3019 14.5333 12.0992 14.023 12.0992Z" fill="white"/>
</svg>
