<svg width="24" height="24" viewBox="0 0 24 24" fill="none" xmlns="http://www.w3.org/2000/svg">
<path d="M5.25 3C4.01625 3 3 4.01625 3 5.25V18.75C3 19.9838 4.01625 21 5.25 21H14.75C14.9489 21 15.1396 20.9209 15.2803 20.7803C15.2829 20.7777 15.2855 20.7751 15.2881 20.7725L20.7803 15.2803C20.9209 15.1396 21 14.9489 21 14.75V5.25C21 4.01625 19.9838 3 18.75 3H5.25ZM5.25 4.5H18.75C19.1733 4.5 19.5 4.82675 19.5 5.25V14H16.25C15.0162 14 14 15.0162 14 16.25V19.5H5.25C4.82675 19.5 4.5 19.1733 4.5 18.75V5.25C4.5 4.82675 4.82675 4.5 5.25 4.5ZM7.75 6.99902C7.65062 6.99762 7.55194 7.01598 7.45972 7.05304C7.36749 7.0901 7.28355 7.14512 7.21277 7.2149C7.142 7.28469 7.08579 7.36784 7.04743 7.45953C7.00907 7.55123 6.98932 7.64963 6.98932 7.74902C6.98932 7.84842 7.00907 7.94682 7.04743 8.03851C7.08579 8.13021 7.142 8.21336 7.21277 8.28314C7.28355 8.35293 7.36749 8.40795 7.45972 8.44501C7.55194 8.48207 7.65062 8.50043 7.75 8.49902H16.25C16.3494 8.50043 16.4481 8.48207 16.5403 8.44501C16.6325 8.40795 16.7164 8.35293 16.7872 8.28314C16.858 8.21336 16.9142 8.13021 16.9526 8.03851C16.9909 7.94682 17.0107 7.84842 17.0107 7.74902C17.0107 7.64963 16.9909 7.55123 16.9526 7.45953C16.9142 7.36784 16.858 7.28469 16.7872 7.2149C16.7164 7.14512 16.6325 7.0901 16.5403 7.05304C16.4481 7.01598 16.3494 6.99762 16.25 6.99902H7.75ZM7.75 10.499C7.65062 10.4976 7.55194 10.516 7.45972 10.553C7.36749 10.5901 7.28355 10.6451 7.21277 10.7149C7.142 10.7847 7.08579 10.8678 7.04743 10.9595C7.00907 11.0512 6.98932 11.1496 6.98932 11.249C6.98932 11.3484 7.00907 11.4468 7.04743 11.5385C7.08579 11.6302 7.142 11.7134 7.21277 11.7831C7.28355 11.8529 7.36749 11.9079 7.45972 11.945C7.55194 11.9821 7.65062 12.0004 7.75 11.999H14.25C14.3494 12.0004 14.4481 11.9821 14.5403 11.945C14.6325 11.9079 14.7164 11.8529 14.7872 11.7831C14.858 11.7134 14.9142 11.6302 14.9526 11.5385C14.9909 11.4468 15.0107 11.3484 15.0107 11.249C15.0107 11.1496 14.9909 11.0512 14.9526 10.9595C14.9142 10.8678 14.858 10.7847 14.7872 10.7149C14.7164 10.6451 14.6325 10.5901 14.5403 10.553C14.4481 10.516 14.3494 10.4976 14.25 10.499H7.75ZM16.25 15.5H18.4395L15.5 18.4395V16.25C15.5 15.8268 15.8268 15.5 16.25 15.5Z" fill="#C5C7D4"/>
</svg>
