<svg width="15" height="15" viewBox="0 0 15 15" fill="none" xmlns="http://www.w3.org/2000/svg">
<path d="M5.15625 1.5625C4.38516 1.5625 3.75 2.19766 3.75 2.96875V3.4375H3.28125C2.16502 3.4375 1.25 4.35252 1.25 5.46875V9.84375C1.25 10.6148 1.88516 11.25 2.65625 11.25H3.75V12.0313C3.75 12.8023 4.38516 13.4375 5.15625 13.4375H9.84375C10.6148 13.4375 11.25 12.8023 11.25 12.0313V11.25H12.3438C13.1148 11.25 13.75 10.6148 13.75 9.84375V5.46875C13.75 4.35252 12.835 3.4375 11.7188 3.4375H11.25V2.96875C11.25 2.19766 10.6148 1.5625 9.84375 1.5625H5.15625ZM5.15625 2.5H9.84375C10.1083 2.5 10.3125 2.70422 10.3125 2.96875V3.4375H4.6875V2.96875C4.6875 2.70422 4.89172 2.5 5.15625 2.5ZM3.28125 4.375H11.7188C12.3281 4.375 12.8125 4.85936 12.8125 5.46875V9.84375C12.8125 10.1083 12.6083 10.3125 12.3438 10.3125H11.25V9.21875C11.25 8.44766 10.6148 7.8125 9.84375 7.8125H5.15625C4.38516 7.8125 3.75 8.44766 3.75 9.21875V10.3125H2.65625C2.39172 10.3125 2.1875 10.1083 2.1875 9.84375V5.46875C2.1875 4.85936 2.67186 4.375 3.28125 4.375ZM5.15625 8.75H9.84375C10.1083 8.75 10.3125 8.95422 10.3125 9.21875V12.0313C10.3125 12.2958 10.1083 12.5 9.84375 12.5H5.15625C4.89172 12.5 4.6875 12.2958 4.6875 12.0313V9.21875C4.6875 8.95422 4.89172 8.75 5.15625 8.75Z" fill="#3F51B5"/>
</svg>
