<svg width="24" height="24" viewBox="0 0 24 24" fill="none" xmlns="http://www.w3.org/2000/svg">
<path d="M10.75 1.50008C10.6506 1.49867 10.5519 1.51703 10.4597 1.55409C10.3675 1.59115 10.2836 1.64617 10.2128 1.71595C10.142 1.78574 10.0858 1.86889 10.0474 1.96059C10.0091 2.05228 9.98932 2.15068 9.98932 2.25007C9.98932 2.34947 10.0091 2.44787 10.0474 2.53956C10.0858 2.63126 10.142 2.71441 10.2128 2.7842C10.2836 2.85398 10.3675 2.909 10.4597 2.94606C10.5519 2.98312 10.6506 3.00148 10.75 3.00007H11.25V4.03816C6.63849 4.42144 3 8.29149 3 13.0001C3 17.9618 7.03832 22.0001 12 22.0001C16.9617 22.0001 21 17.9618 21 13.0001C21 10.7887 20.1948 8.76416 18.8662 7.19539L19.7783 6.2823C19.8865 6.17692 19.9604 6.04134 19.9903 5.89328C20.0201 5.74523 20.0046 5.59161 19.9457 5.45253C19.8868 5.31344 19.7873 5.19537 19.6602 5.11377C19.5331 5.03217 19.3844 4.99084 19.2334 4.99519C19.0386 5.00087 18.8537 5.08212 18.7178 5.22175L17.8047 6.13386C16.4155 4.95733 14.6679 4.19757 12.75 4.03816V3.00007H13.25C13.3494 3.00148 13.4481 2.98312 13.5403 2.94606C13.6325 2.909 13.7164 2.85398 13.7872 2.7842C13.858 2.71441 13.9142 2.63126 13.9526 2.53956C13.9909 2.44787 14.0107 2.34947 14.0107 2.25007C14.0107 2.15068 13.9909 2.05228 13.9526 1.96059C13.9142 1.86889 13.858 1.78574 13.7872 1.71595C13.7164 1.64617 13.6325 1.59115 13.5403 1.55409C13.4481 1.51703 13.3494 1.49867 13.25 1.50008H10.75ZM11.9111 5.50496C11.9715 5.51232 12.0324 5.51232 12.0928 5.50496C14.11 5.52952 15.9315 6.34265 17.2637 7.65437C17.288 7.68267 17.3145 7.70911 17.3428 7.73347C18.6765 9.08649 19.5 10.944 19.5 13.0001C19.5 17.1511 16.151 20.5001 12 20.5001C7.84898 20.5001 4.5 17.1511 4.5 13.0001C4.5 8.87906 7.80176 5.55289 11.9111 5.50496ZM15.2354 8.99324C15.0406 8.99892 14.8556 9.08017 14.7197 9.2198L12.3867 11.5528C12.2607 11.5185 12.1307 11.5007 12 11.5001C11.6022 11.5001 11.2206 11.6581 10.9393 11.9394C10.658 12.2207 10.5 12.6023 10.5 13.0001C10.5 13.3979 10.658 13.7794 10.9393 14.0607C11.2206 14.342 11.6022 14.5001 12 14.5001C12.23 14.5 12.4568 14.447 12.6631 14.3452C12.8693 14.2434 13.0493 14.0956 13.1893 13.9131C13.3293 13.7307 13.4254 13.5185 13.4703 13.2929C13.5152 13.0674 13.5077 12.8345 13.4482 12.6124L15.7803 10.2803C15.8885 10.175 15.9623 10.0394 15.9922 9.89133C16.0221 9.74328 16.0066 9.58966 15.9477 9.45057C15.8888 9.31149 15.7893 9.19342 15.6622 9.11182C15.5351 9.03022 15.3863 8.98889 15.2354 8.99324Z" fill="#C5C7D4"/>
</svg>
