<svg width="15" height="15" viewBox="0 0 15 15" fill="none" xmlns="http://www.w3.org/2000/svg">
<path d="M3.28127 1.87505C2.54522 1.87505 1.93953 2.45549 1.8854 3.17876C1.87818 3.21245 1.8747 3.24684 1.87502 3.2813V4.2188V4.68755V11.7188C1.87502 12.4899 2.51018 13.125 3.28127 13.125H11.7188C12.4899 13.125 13.125 12.4899 13.125 11.7188V5.1563C13.125 4.3852 12.4899 3.75005 11.7188 3.75005H3.28127C3.01674 3.75005 2.81252 3.54583 2.81252 3.2813C2.81252 3.01677 3.01674 2.81255 3.28127 2.81255H11.0938C11.1559 2.81343 11.2176 2.80195 11.2752 2.77879C11.3328 2.75562 11.3853 2.72124 11.4295 2.67762C11.4738 2.63401 11.5089 2.58204 11.5329 2.52473C11.5569 2.46742 11.5692 2.40592 11.5692 2.3438C11.5692 2.28168 11.5569 2.22017 11.5329 2.16287C11.5089 2.10556 11.4738 2.05359 11.4295 2.00997C11.3853 1.96636 11.3328 1.93197 11.2752 1.90881C11.2176 1.88564 11.1559 1.87417 11.0938 1.87505H3.28127ZM2.81252 4.68755H3.28127H11.7188C11.9833 4.68755 12.1875 4.89177 12.1875 5.1563V11.7188C12.1875 11.9833 11.9833 12.1875 11.7188 12.1875H3.28127C3.01674 12.1875 2.81252 11.9833 2.81252 11.7188V4.68755ZM10.4688 7.50005C10.2616 7.50005 10.0629 7.58236 9.91634 7.72887C9.76983 7.87538 9.68752 8.0741 9.68752 8.2813C9.68752 8.4885 9.76983 8.68721 9.91634 8.83372C10.0629 8.98024 10.2616 9.06255 10.4688 9.06255C10.676 9.06255 10.8747 8.98024 11.0212 8.83372C11.1677 8.68721 11.25 8.4885 11.25 8.2813C11.25 8.0741 11.1677 7.87538 11.0212 7.72887C10.8747 7.58236 10.676 7.50005 10.4688 7.50005Z" fill="#3F51B5"/>
</svg>
