<svg width="15" height="17" viewBox="0 0 15 17" fill="none" xmlns="http://www.w3.org/2000/svg">
<path d="M4.65625 0.1875C2.36069 0.1875 0.5 2.04819 0.5 4.34375V12.8135C0.5 13.3984 0.792359 13.9449 1.2793 14.2695L1.8125 14.625V4.34375C1.8125 2.77312 3.08562 1.5 4.65625 1.5H12.3125L11.957 0.966797C11.6328 0.479859 11.0864 0.1875 10.501 0.1875H4.65625ZM5.09375 2.375C3.7726 2.375 2.6875 3.4601 2.6875 4.78125V14.4062C2.6875 15.7274 3.7726 16.8125 5.09375 16.8125H12.0938C13.4149 16.8125 14.5 15.7274 14.5 14.4062V4.78125C14.5 3.4601 13.4149 2.375 12.0938 2.375H5.09375ZM5.09375 3.6875H12.0938C12.7055 3.6875 13.1875 4.16953 13.1875 4.78125V14.4062C13.1875 15.018 12.7055 15.5 12.0938 15.5H5.09375C4.48203 15.5 4 15.018 4 14.4062V4.78125C4 4.16953 4.48203 3.6875 5.09375 3.6875ZM6.40625 6.3125C6.31929 6.31127 6.23295 6.32734 6.15225 6.35976C6.07156 6.39219 5.99811 6.44033 5.93618 6.50139C5.87425 6.56245 5.82507 6.63521 5.7915 6.71545C5.75794 6.79568 5.74065 6.88178 5.74065 6.96875C5.74065 7.05572 5.75794 7.14182 5.7915 7.22205C5.82507 7.30228 5.87425 7.37504 5.93618 7.4361C5.99811 7.49716 6.07156 7.54531 6.15225 7.57773C6.23295 7.61016 6.31929 7.62623 6.40625 7.625H10.7812C10.8682 7.62623 10.9545 7.61016 11.0352 7.57773C11.1159 7.54531 11.1894 7.49716 11.2513 7.4361C11.3133 7.37504 11.3624 7.30228 11.396 7.22205C11.4296 7.14182 11.4468 7.05572 11.4468 6.96875C11.4468 6.88178 11.4296 6.79568 11.396 6.71545C11.3624 6.63521 11.3133 6.56245 11.2513 6.50139C11.1894 6.44033 11.1159 6.39219 11.0352 6.35976C10.9545 6.32734 10.8682 6.31127 10.7812 6.3125H6.40625ZM6.40625 8.9375C6.31929 8.93627 6.23295 8.95234 6.15225 8.98476C6.07156 9.01719 5.99811 9.06533 5.93618 9.12639C5.87425 9.18745 5.82507 9.26021 5.7915 9.34045C5.75794 9.42068 5.74065 9.50678 5.74065 9.59375C5.74065 9.68072 5.75794 9.76682 5.7915 9.84705C5.82507 9.92728 5.87425 10 5.93618 10.0611C5.99811 10.1222 6.07156 10.1703 6.15225 10.2027C6.23295 10.2352 6.31929 10.2512 6.40625 10.25H10.7812C10.8682 10.2512 10.9545 10.2352 11.0352 10.2027C11.1159 10.1703 11.1894 10.1222 11.2513 10.0611C11.3133 10 11.3624 9.92728 11.396 9.84705C11.4296 9.76682 11.4468 9.68072 11.4468 9.59375C11.4468 9.50678 11.4296 9.42068 11.396 9.34045C11.3624 9.26021 11.3133 9.18745 11.2513 9.12639C11.1894 9.06533 11.1159 9.01719 11.0352 8.98476C10.9545 8.95234 10.8682 8.93627 10.7812 8.9375H6.40625ZM6.40625 11.5625C6.31929 11.5613 6.23295 11.5773 6.15225 11.6098C6.07156 11.6422 5.99811 11.6903 5.93618 11.7514C5.87425 11.8125 5.82507 11.8852 5.7915 11.9654C5.75794 12.0457 5.74065 12.1318 5.74065 12.2187C5.74065 12.3057 5.75794 12.3918 5.7915 12.4721C5.82507 12.5523 5.87425 12.625 5.93618 12.6861C5.99811 12.7472 6.07156 12.7953 6.15225 12.8277C6.23295 12.8602 6.31929 12.8762 6.40625 12.875H10.7812C10.8682 12.8762 10.9545 12.8602 11.0352 12.8277C11.1159 12.7953 11.1894 12.7472 11.2513 12.6861C11.3133 12.625 11.3624 12.5523 11.396 12.4721C11.4296 12.3918 11.4468 12.3057 11.4468 12.2187C11.4468 12.1318 11.4296 12.0457 11.396 11.9654C11.3624 11.8852 11.3133 11.8125 11.2513 11.7514C11.1894 11.6903 11.1159 11.6422 11.0352 11.6098C10.9545 11.5773 10.8682 11.5613 10.7812 11.5625H6.40625Z" fill="#C5C7D4"/>
</svg>
