<svg width="19" height="19" viewBox="0 0 19 19" fill="none" xmlns="http://www.w3.org/2000/svg">
<path d="M9.5 0.75C4.67528 0.75 0.75 4.67528 0.75 9.5C0.75 14.3247 4.67528 18.25 9.5 18.25C14.3247 18.25 18.25 14.3247 18.25 9.5C18.25 4.67528 14.3247 0.75 9.5 0.75ZM9.5 2.0625C13.6154 2.0625 16.9375 5.38461 16.9375 9.5C16.9375 13.6154 13.6154 16.9375 9.5 16.9375C5.38461 16.9375 2.0625 13.6154 2.0625 9.5C2.0625 5.38461 5.38461 2.0625 9.5 2.0625ZM9.48975 3.3656C9.31585 3.36832 9.15014 3.43995 9.02901 3.56476C8.90789 3.68957 8.84126 3.85735 8.84375 4.03125V9.28125C8.84252 9.36821 8.85859 9.45455 8.89101 9.53525C8.92344 9.61594 8.97159 9.68939 9.03265 9.75132C9.09371 9.81325 9.16646 9.86243 9.2467 9.896C9.32693 9.92956 9.41303 9.94685 9.5 9.94685C9.58697 9.94685 9.67307 9.92956 9.7533 9.896C9.83354 9.86243 9.90629 9.81325 9.96735 9.75132C10.0284 9.68939 10.0766 9.61594 10.109 9.53525C10.1414 9.45455 10.1575 9.36821 10.1562 9.28125V4.03125C10.1575 3.94341 10.1411 3.85622 10.1081 3.77484C10.075 3.69345 10.0259 3.61953 9.96379 3.55745C9.90163 3.49538 9.82765 3.44641 9.74622 3.41346C9.66479 3.3805 9.57758 3.36423 9.48975 3.3656ZM11.908 4.41833C11.76 4.41546 11.6154 4.46268 11.4977 4.55232C11.3799 4.64196 11.2959 4.76876 11.2593 4.91215C11.2227 5.05553 11.2356 5.20709 11.296 5.3422C11.3563 5.47732 11.4606 5.58808 11.5918 5.65649C12.9513 6.39805 13.875 7.83633 13.875 9.5C13.875 11.9239 11.9239 13.875 9.5 13.875C7.07614 13.875 5.125 11.9239 5.125 9.5C5.125 7.83633 6.04847 6.39855 7.4082 5.65649C7.54022 5.58701 7.64463 5.47462 7.70422 5.33785C7.76381 5.20108 7.77502 5.04809 7.73601 4.90409C7.697 4.76009 7.6101 4.63368 7.48962 4.54569C7.36914 4.4577 7.22228 4.41339 7.07324 4.42004C6.96997 4.4247 6.86925 4.45368 6.7793 4.50464C5.01091 5.46971 3.8125 7.34955 3.8125 9.5C3.8125 12.6333 6.36674 15.1875 9.5 15.1875C12.6333 15.1875 15.1875 12.6333 15.1875 9.5C15.1875 7.34955 13.9893 5.46933 12.2207 4.50464C12.1253 4.45015 12.0178 4.42048 11.908 4.41833Z" fill="white"/>
</svg>
