<svg width="21" height="21" viewBox="0 0 21 21" fill="none" xmlns="http://www.w3.org/2000/svg">
<path d="M10.4786 1.74983C10.3387 1.75461 10.204 1.80401 10.0941 1.89082L3.87598 6.78962C3.08677 7.41159 2.625 8.36199 2.625 9.36677V17.7186C2.625 18.3152 3.12218 18.8123 3.71875 18.8123H8.09375C8.69032 18.8123 9.1875 18.3152 9.1875 17.7186V13.3436C9.1875 13.2145 9.27717 13.1248 9.40625 13.1248H11.5938C11.7228 13.1248 11.8125 13.2145 11.8125 13.3436V17.7186C11.8125 18.3152 12.3097 18.8123 12.9062 18.8123H17.2812C17.8778 18.8123 18.375 18.3152 18.375 17.7186V9.36677C18.375 8.36199 17.9132 7.41159 17.124 6.78962L10.9059 1.89082C10.7845 1.79495 10.6332 1.74502 10.4786 1.74983ZM10.5 3.24177L16.3123 7.821C16.7866 8.19478 17.0625 8.76331 17.0625 9.36677V17.4998H13.125V13.3436C13.125 12.5058 12.4315 11.8123 11.5938 11.8123H9.40625C8.56846 11.8123 7.875 12.5058 7.875 13.3436V17.4998H3.9375V9.36677C3.9375 8.76331 4.21345 8.19478 4.68774 7.821L10.5 3.24177Z" fill="#C5C7D4"/>
</svg>
