<svg width="21" height="15" viewBox="0 0 21 15" fill="none" xmlns="http://www.w3.org/2000/svg">
<path d="M1.63524 0.312572C1.53999 0.311225 1.44543 0.328821 1.35705 0.364337C1.26867 0.399853 1.18822 0.452581 1.12039 0.519457C1.05257 0.586333 0.998706 0.666022 0.961944 0.753895C0.925181 0.841767 0.90625 0.93607 0.90625 1.03132C0.90625 1.12657 0.925181 1.22088 0.961944 1.30875C0.998706 1.39662 1.05257 1.47631 1.12039 1.54319C1.18822 1.61006 1.26867 1.66279 1.35705 1.69831C1.44543 1.73382 1.53999 1.75142 1.63524 1.75007H19.3644C19.4596 1.75142 19.5542 1.73382 19.6426 1.69831C19.731 1.66279 19.8114 1.61006 19.8792 1.54319C19.9471 1.47631 20.0009 1.39662 20.0377 1.30875C20.0745 1.22088 20.0934 1.12657 20.0934 1.03132C20.0934 0.93607 20.0745 0.841767 20.0377 0.753895C20.0009 0.666022 19.9471 0.586333 19.8792 0.519457C19.8114 0.452581 19.731 0.399853 19.6426 0.364337C19.5542 0.328821 19.4596 0.311225 19.3644 0.312572H1.63524ZM1.63524 6.78132C1.53999 6.77998 1.44543 6.79757 1.35705 6.83309C1.26867 6.8686 1.18822 6.92133 1.12039 6.98821C1.05257 7.05508 0.998706 7.13477 0.961944 7.22265C0.925181 7.31052 0.90625 7.40482 0.90625 7.50007C0.90625 7.59533 0.925181 7.68963 0.961944 7.7775C0.998706 7.86537 1.05257 7.94506 1.12039 8.01194C1.18822 8.07881 1.26867 8.13154 1.35705 8.16706C1.44543 8.20257 1.53999 8.22017 1.63524 8.21882H19.3644C19.4596 8.22017 19.5542 8.20257 19.6426 8.16706C19.731 8.13154 19.8114 8.07881 19.8792 8.01194C19.9471 7.94506 20.0009 7.86537 20.0377 7.7775C20.0745 7.68963 20.0934 7.59533 20.0934 7.50007C20.0934 7.40482 20.0745 7.31052 20.0377 7.22265C20.0009 7.13477 19.9471 7.05508 19.8792 6.98821C19.8114 6.92133 19.731 6.8686 19.6426 6.83309C19.5542 6.79757 19.4596 6.77998 19.3644 6.78132H1.63524ZM1.63524 13.2501C1.53999 13.2487 1.44543 13.2663 1.35705 13.3018C1.26867 13.3374 1.18822 13.3901 1.12039 13.457C1.05257 13.5238 0.998706 13.6035 0.961944 13.6914C0.925181 13.7793 0.90625 13.8736 0.90625 13.9688C0.90625 14.0641 0.925181 14.1584 0.961944 14.2463C0.998706 14.3341 1.05257 14.4138 1.12039 14.4807C1.18822 14.5476 1.26867 14.6003 1.35705 14.6358C1.44543 14.6713 1.53999 14.6889 1.63524 14.6876H19.3644C19.4596 14.6889 19.5542 14.6713 19.6426 14.6358C19.731 14.6003 19.8114 14.5476 19.8792 14.4807C19.9471 14.4138 20.0009 14.3341 20.0377 14.2463C20.0745 14.1584 20.0934 14.0641 20.0934 13.9688C20.0934 13.8736 20.0745 13.7793 20.0377 13.6914C20.0009 13.6035 19.9471 13.5238 19.8792 13.457C19.8114 13.3901 19.731 13.3374 19.6426 13.3018C19.5542 13.2663 19.4596 13.2487 19.3644 13.2501H1.63524Z" fill="black"/>
</svg>
