<svg width="17" height="18" viewBox="0 0 17 18" fill="none" xmlns="http://www.w3.org/2000/svg">
<path d="M8.18416 0.757902C4.64764 0.924475 1.93783 3.96294 1.93783 7.47934V10.6589L0.77828 12.9917C0.77624 12.9959 0.774246 13.0002 0.772298 13.0045C0.305811 13.9965 1.06095 15.1877 2.15743 15.1877H5.87533C5.87533 16.6297 7.05838 17.8127 8.50033 17.8127C9.94227 17.8127 11.1253 16.6297 11.1253 15.1877H14.8424C15.9388 15.1877 16.695 13.9968 16.2284 13.0045C16.2264 13.0002 16.2244 12.9959 16.2224 12.9917L15.0628 10.6589V7.31271C15.0628 3.59125 11.9405 0.581058 8.18416 0.757902ZM8.24569 2.06869C11.2732 1.92616 13.7503 4.32117 13.7503 7.31271V10.8127C13.7502 10.9141 13.7736 11.0141 13.8187 11.1049L15.0406 13.5642C15.1192 13.7326 15.0283 13.8752 14.8424 13.8752H2.15743C1.97152 13.8752 1.88135 13.7328 1.96004 13.5642V13.5633L3.18197 11.1049C3.22702 11.0141 3.25042 10.9141 3.25033 10.8127V7.47934C3.25033 4.63535 5.42883 2.20137 8.24569 2.06869ZM7.18783 15.1877H9.81283C9.81283 15.9201 9.23276 16.5002 8.50033 16.5002C7.76789 16.5002 7.18783 15.9201 7.18783 15.1877Z" fill="#C5C7D4"/>
</svg>
