<svg width="21" height="21" viewBox="0 0 21 21" fill="none" xmlns="http://www.w3.org/2000/svg">
<path d="M12.4745 2.62504C12.4094 2.6243 12.3446 2.63322 12.2822 2.65153L2.65722 5.49528C2.5278 5.53344 2.41329 5.61055 2.32927 5.71613C2.24525 5.8217 2.19581 5.9506 2.18769 6.08529C2.17956 6.21997 2.21314 6.35388 2.28386 6.46879C2.35458 6.5837 2.45899 6.67402 2.58288 6.72746L9.14538 9.57121C9.28654 9.63243 9.44472 9.6421 9.59228 9.59855L19.2173 6.7548C19.3467 6.71665 19.4612 6.63954 19.5452 6.53396C19.6293 6.42839 19.6787 6.29948 19.6868 6.1648C19.6949 6.03012 19.6614 5.89621 19.5906 5.7813C19.5199 5.66639 19.4155 5.57606 19.2916 5.52263L12.7291 2.67888C12.6487 2.64411 12.5621 2.62581 12.4745 2.62504ZM12.4266 3.97856L17.1101 6.00798L9.44873 8.27238L4.7644 6.24211L12.4266 3.97856ZM2.85034 8.52787C2.69731 8.5243 2.54786 8.57433 2.42781 8.6693C2.30777 8.76427 2.2247 8.89821 2.19297 9.04795C2.16124 9.19769 2.18284 9.35381 2.25404 9.48931C2.32524 9.6248 2.44156 9.73115 2.58288 9.78996L9.14538 12.6337C9.28654 12.6949 9.44472 12.7046 9.59228 12.6611L19.2173 9.8173C19.3 9.79285 19.3771 9.75234 19.4441 9.69809C19.5112 9.64384 19.5669 9.57692 19.6081 9.50114C19.6493 9.42536 19.6751 9.34221 19.6842 9.25644C19.6932 9.17067 19.6853 9.08395 19.6608 9.00125C19.6364 8.91854 19.5958 8.84146 19.5416 8.77441C19.4873 8.70737 19.4204 8.65166 19.3446 8.61048C19.2688 8.5693 19.1857 8.54345 19.0999 8.53441C19.0141 8.52537 18.9274 8.53331 18.8447 8.55778L9.44873 11.3349L3.10412 8.58513C3.02419 8.5493 2.93791 8.52983 2.85034 8.52787ZM2.85034 11.5904C2.69731 11.5868 2.54786 11.6368 2.42781 11.7318C2.30777 11.8268 2.2247 11.9607 2.19297 12.1104C2.16124 12.2602 2.18284 12.4163 2.25404 12.5518C2.32524 12.6873 2.44156 12.7937 2.58288 12.8525L9.14538 15.6962C9.28654 15.7574 9.44472 15.7671 9.59228 15.7236L19.2173 12.8798C19.3 12.8553 19.3771 12.8148 19.4441 12.7606C19.5112 12.7063 19.5669 12.6394 19.6081 12.5636C19.6493 12.4879 19.6751 12.4047 19.6842 12.3189C19.6932 12.2332 19.6853 12.1465 19.6608 12.0637C19.6364 11.981 19.5958 11.904 19.5416 11.8369C19.4873 11.7699 19.4204 11.7142 19.3446 11.673C19.2688 11.6318 19.1857 11.606 19.0999 11.5969C19.0141 11.5879 18.9274 11.5958 18.8447 11.6203L9.44873 14.3974L3.10412 11.6476C3.02419 11.6118 2.93791 11.5923 2.85034 11.5904ZM2.85034 14.6529C2.69731 14.6493 2.54786 14.6993 2.42781 14.7943C2.30777 14.8893 2.2247 15.0232 2.19297 15.1729C2.16124 15.3227 2.18284 15.4788 2.25404 15.6143C2.32524 15.7498 2.44156 15.8562 2.58288 15.915L9.14538 18.7587C9.28654 18.8199 9.44472 18.8296 9.59228 18.7861L19.2173 15.9423C19.3 15.9178 19.3771 15.8773 19.4441 15.8231C19.5112 15.7688 19.5669 15.7019 19.6081 15.6261C19.6493 15.5504 19.6751 15.4672 19.6842 15.3814C19.6932 15.2957 19.6853 15.209 19.6608 15.1262C19.6364 15.0435 19.5958 14.9665 19.5416 14.8994C19.4873 14.8324 19.4204 14.7767 19.3446 14.7355C19.2688 14.6943 19.1857 14.6685 19.0999 14.6594C19.0141 14.6504 18.9274 14.6583 18.8447 14.6828L9.44873 17.4599L3.10412 14.7101C3.02419 14.6743 2.93791 14.6548 2.85034 14.6529Z" fill="#C5C7D4"/>
</svg>
