<svg width="17" height="19" viewBox="0 0 17 19" fill="none" xmlns="http://www.w3.org/2000/svg">
<path d="M8.49984 0.75C7.80994 0.75 7.14475 0.83725 6.50972 0.984985C6.3773 1.01589 6.25775 1.08717 6.16759 1.18896C6.07743 1.29075 6.02112 1.41804 6.00643 1.55322L5.86714 2.823C5.82159 3.23909 5.58123 3.60725 5.21859 3.81677C4.85666 4.02588 4.41736 4.04904 4.03426 3.88086H4.0334L2.86702 3.36731C2.74261 3.31256 2.60427 3.29779 2.47111 3.32503C2.33794 3.35228 2.21652 3.4202 2.12361 3.51941C1.2169 4.48607 0.521008 5.65659 0.125812 6.96301C0.0864465 7.09304 0.0884026 7.23208 0.13141 7.36095C0.174418 7.48982 0.256357 7.60217 0.365924 7.6825L1.40071 8.44128C1.73862 8.68971 1.93734 9.08123 1.93734 9.5C1.93734 9.919 1.73862 10.3108 1.40071 10.5587L0.365924 11.3167C0.256357 11.397 0.174418 11.5093 0.13141 11.6382C0.0884026 11.7671 0.0864465 11.9061 0.125812 12.0361C0.520966 13.3424 1.2163 14.5138 2.12361 15.4806C2.21662 15.5797 2.33809 15.6474 2.47125 15.6745C2.60441 15.7016 2.7427 15.6867 2.86702 15.6318L4.0334 15.1183C4.41669 14.9497 4.85641 14.974 5.21859 15.1832C5.58123 15.3928 5.82159 15.7609 5.86714 16.177L6.00643 17.4468C6.02123 17.5817 6.07749 17.7087 6.16748 17.8103C6.25746 17.9119 6.37673 17.9831 6.50887 18.0142C7.14418 18.1624 7.80994 18.25 8.49984 18.25C9.18973 18.25 9.85492 18.1628 10.4899 18.015C10.6224 17.9841 10.7419 17.9128 10.8321 17.811C10.9222 17.7092 10.9786 17.582 10.9932 17.4468L11.1325 16.177C11.1781 15.7609 11.4184 15.3928 11.7811 15.1832C12.143 14.9741 12.5823 14.9501 12.9654 15.1183L14.1326 15.6318C14.257 15.6867 14.3953 15.7016 14.5284 15.6745C14.6616 15.6474 14.783 15.5797 14.8761 15.4806C15.7828 14.5139 16.4787 13.3426 16.8739 12.0361C16.9132 11.9061 16.9113 11.7671 16.8683 11.6382C16.8253 11.5093 16.7433 11.397 16.6337 11.3167L15.599 10.5587C15.261 10.3108 15.0623 9.919 15.0623 9.5C15.0623 9.081 15.261 8.68916 15.599 8.44128L16.6337 7.68335C16.7433 7.60302 16.8253 7.49068 16.8683 7.36181C16.9113 7.23294 16.9132 7.0939 16.8739 6.96387C16.4787 5.65744 15.7828 4.48607 14.8761 3.51941C14.783 3.42034 14.6616 3.35259 14.5284 3.32549C14.3953 3.2984 14.257 3.31331 14.1326 3.36816L12.9654 3.88171C12.5823 4.0499 12.143 4.02588 11.7811 3.81677C11.4184 3.60725 11.1781 3.23909 11.1325 2.823L10.9932 1.55322C10.9784 1.4183 10.9222 1.29129 10.8322 1.18968C10.7422 1.08807 10.6229 1.01685 10.4908 0.98584C9.85548 0.837568 9.18973 0.75 8.49984 0.75ZM8.49984 2.0625C8.92609 2.0625 9.33542 2.13901 9.74568 2.21118L9.82772 2.9657C9.91866 3.79648 10.4016 4.5354 11.1248 4.95325C11.8485 5.37137 12.7296 5.41944 13.4943 5.08313L14.1882 4.77808C14.721 5.41786 15.1428 6.14052 15.4375 6.93225L14.8222 7.38342C14.1486 7.87754 13.7498 8.66425 13.7498 9.5C13.7498 10.3358 14.1486 11.1225 14.8222 11.6166L15.4375 12.0677C15.1428 12.8595 14.721 13.5821 14.1882 14.2219L13.4943 13.9169C12.7296 13.5806 11.8485 13.6286 11.1248 14.0468C10.4016 14.4646 9.91866 15.2035 9.82772 16.0343L9.74568 16.7888C9.33546 16.8608 8.92588 16.9375 8.49984 16.9375C8.07358 16.9375 7.66424 16.861 7.25399 16.7888L7.17195 16.0343C7.08101 15.2035 6.59806 14.4646 5.87484 14.0468C5.15114 13.6286 4.27004 13.5806 3.50533 13.9169L2.81148 14.2219C2.27858 13.5822 1.85681 12.8595 1.56221 12.0677L2.17745 11.6166C2.85104 11.1225 3.24984 10.3358 3.24984 9.5C3.24984 8.66425 2.85071 7.87703 2.17745 7.38257L1.56221 6.9314C1.85698 6.13936 2.27922 5.41718 2.81234 4.77722L3.50533 5.08228C4.27004 5.41859 5.15114 5.37137 5.87484 4.95325C6.59806 4.5354 7.08101 3.79648 7.17195 2.9657L7.25399 2.21118C7.66421 2.13921 8.07379 2.0625 8.49984 2.0625ZM8.49984 6C6.57461 6 4.99984 7.57478 4.99984 9.5C4.99984 11.4252 6.57461 13 8.49984 13C10.4251 13 11.9998 11.4252 11.9998 9.5C11.9998 7.57478 10.4251 6 8.49984 6ZM8.49984 7.3125C9.71573 7.3125 10.6873 8.2841 10.6873 9.5C10.6873 10.7159 9.71573 11.6875 8.49984 11.6875C7.28394 11.6875 6.31234 10.7159 6.31234 9.5C6.31234 8.2841 7.28394 7.3125 8.49984 7.3125Z" fill="#C5C7D4"/>
</svg>
