<svg width="42" height="41" viewBox="0 0 42 41" fill="none" xmlns="http://www.w3.org/2000/svg">
<g clip-path="url(#clip0_640_3770)">
<path d="M16.2699 6.87124C15.9459 6.8768 15.6362 7.00588 15.4042 7.2321L6.21888 13.9129C5.88919 14.1519 5.6958 14.5341 5.6958 14.9409V32.7388C5.6958 33.2168 5.96307 33.6557 6.38938 33.8726C6.57159 33.965 6.77045 34.01 6.96708 34.01C7.2315 34.01 7.49408 33.9277 7.71528 33.7667L16.2898 27.5312L24.8643 33.7667C25.3092 34.0913 25.9149 34.0913 26.3607 33.7667L26.9202 33.3595L22.3615 28.8024L17.5611 25.3114V10.6569L24.3412 15.5881V18.417C24.9811 18.5882 25.8049 18.8203 26.8838 19.1288V15.5881L33.6639 10.6569V24.5235L35.9102 26.7697C36.0983 26.5443 36.2065 26.2586 36.2065 25.9586V8.16073C36.2065 7.68273 35.9392 7.24381 35.5129 7.02684C35.0866 6.80988 34.5735 6.85141 34.187 7.13278L25.6125 13.3683L17.1886 7.24369C17.1864 7.24147 17.1842 7.23927 17.182 7.23707C17.0618 7.11862 16.9193 7.02528 16.7627 6.96247C16.6061 6.89967 16.4386 6.86865 16.2699 6.87124ZM15.0185 10.6569V25.3114L8.23836 30.2425V15.5881L15.0185 10.6569ZM22.1628 19.6022C21.856 19.6141 21.5534 19.7349 21.3186 19.9697C21.083 20.2053 20.9621 20.5096 20.9511 20.8172C20.9452 20.9876 20.9729 21.1577 21.0339 21.3188L22.3648 25.9636C22.4834 26.3729 22.7061 26.7502 23.0087 27.0528L33.0084 37.0525C33.6127 37.6576 34.3283 38.0483 35.0775 38.1831C35.314 38.2263 35.5488 38.2476 35.781 38.2476C36.793 38.2493 37.7495 37.8575 38.4775 37.1286C39.2073 36.4006 39.5974 35.4441 39.5949 34.4321C39.594 34.1999 39.5744 33.9651 39.532 33.7286C39.3972 32.9794 39.0065 32.2638 38.4014 31.6595L28.4 21.6598C28.0966 21.3564 27.7218 21.1345 27.3125 21.0159L22.6677 19.685C22.5058 19.6231 22.3332 19.5963 22.1628 19.6022Z" fill="white"/>
</g>
<defs>
<clipPath id="clip0_640_3770">
<rect width="40.6809" height="40.6809" fill="white" transform="translate(0.612305 0.109131)"/>
</clipPath>
</defs>
</svg>
