<svg width="17" height="17" viewBox="0 0 17 17" fill="none" xmlns="http://www.w3.org/2000/svg">
<path d="M12.75 1.77441C12.1143 1.77441 11.4788 2.01538 10.9971 2.49727L3.15771 10.336C3.00896 10.4847 2.90003 10.6697 2.84228 10.8728L1.79154 14.5521C1.76562 14.6431 1.7645 14.7394 1.78829 14.8311C1.81208 14.9227 1.85992 15.0063 1.92686 15.0732C1.99379 15.1402 2.07739 15.188 2.16901 15.2118C2.26063 15.2356 2.35695 15.2344 2.44799 15.2085L6.128 14.1578C6.12823 14.1576 6.12846 14.1573 6.12869 14.1571C6.3304 14.0991 6.51492 13.9915 6.66409 13.8424L14.5028 6.00297C15.4665 5.03924 15.4665 3.46101 14.5028 2.49727C14.0211 2.01538 13.3856 1.77441 12.75 1.77441ZM12.75 2.83069C13.1115 2.83069 13.4725 2.96999 13.7509 3.24849C13.7511 3.24849 13.7513 3.24849 13.7516 3.24849C14.3093 3.80626 14.3093 4.69398 13.7516 5.25175L13.0647 5.93864L11.0614 3.93538L11.7483 3.24849C12.0267 2.96999 12.3884 2.83069 12.75 2.83069ZM10.3102 4.6866L12.3135 6.68986L5.91218 13.0911C5.89142 13.1118 5.86512 13.1276 5.8354 13.1361L3.07539 13.9247L3.86396 11.164C3.86396 11.1638 3.86396 11.1635 3.86396 11.1633C3.87209 11.1347 3.88696 11.1092 3.90893 11.0872L10.3102 4.6866Z" fill="white"/>
</svg>
