<svg width="42" height="42" viewBox="0 0 42 42" fill="none" xmlns="http://www.w3.org/2000/svg">
<path d="M18.2471 4.36822C17.9543 4.37642 17.6732 4.48551 17.4515 4.67704C17.2299 4.86857 17.0811 5.13078 17.0305 5.41934L15.3023 14.555H7.26249C7.09404 14.5526 6.92678 14.5837 6.77046 14.6465C6.61413 14.7094 6.47185 14.8026 6.35188 14.9209C6.23191 15.0392 6.13664 15.1801 6.07162 15.3356C6.0066 15.491 5.97311 15.6578 5.97311 15.8263C5.97311 15.9947 6.0066 16.1615 6.07162 16.317C6.13664 16.4724 6.23191 16.6133 6.35188 16.7316C6.47185 16.8499 6.61413 16.9432 6.77046 17.006C6.92678 17.0688 7.09404 17.0999 7.26249 17.0975H14.8206L13.2183 25.5727H5.56746C5.399 25.5703 5.23175 25.6014 5.07542 25.6643C4.91909 25.7271 4.77681 25.8203 4.65684 25.9386C4.53687 26.0569 4.44161 26.1979 4.37658 26.3533C4.31156 26.5087 4.27808 26.6755 4.27808 26.844C4.27808 27.0125 4.31156 27.1793 4.37658 27.3347C4.44161 27.4901 4.53687 27.6311 4.65684 27.7493C4.77681 27.8676 4.91909 27.9609 5.07542 28.0237C5.23175 28.0865 5.399 28.1176 5.56746 28.1153H12.7366L11.0978 36.7775C11.0668 36.9416 11.0683 37.1102 11.1024 37.2738C11.1365 37.4373 11.2024 37.5925 11.2965 37.7305C11.3906 37.8686 11.5109 37.9867 11.6506 38.0782C11.7904 38.1698 11.9468 38.2329 12.1109 38.264C12.275 38.295 12.4436 38.2935 12.6072 38.2594C12.7707 38.2253 12.9259 38.1594 13.0639 38.0653C13.202 37.9712 13.3201 37.8509 13.4116 37.7112C13.5032 37.5714 13.5663 37.415 13.5974 37.2509L15.3255 28.1153H24.6018L22.9631 36.7775C22.9003 37.1089 22.9718 37.4518 23.1618 37.7305C23.3517 38.0093 23.6447 38.2012 23.9761 38.264C24.3076 38.3267 24.6504 38.2553 24.9292 38.0653C25.2079 37.8753 25.3998 37.5824 25.4626 37.2509L27.1907 28.1153H35.2306C35.399 28.1176 35.5663 28.0865 35.7226 28.0237C35.8789 27.9609 36.0212 27.8676 36.1412 27.7493C36.2612 27.6311 36.3564 27.4901 36.4215 27.3347C36.4865 27.1793 36.52 27.0125 36.52 26.844C36.52 26.6755 36.4865 26.5087 36.4215 26.3533C36.3564 26.1979 36.2612 26.0569 36.1412 25.9386C36.0212 25.8203 35.8789 25.7271 35.7226 25.6643C35.5663 25.6014 35.399 25.5703 35.2306 25.5727H27.6724L29.2748 17.0975H36.9256C37.0941 17.0999 37.2613 17.0688 37.4177 17.006C37.574 16.9432 37.7163 16.8499 37.8362 16.7316C37.9562 16.6133 38.0515 16.4724 38.1165 16.317C38.1815 16.1615 38.215 15.9947 38.215 15.8263C38.215 15.6578 38.1815 15.491 38.1165 15.3356C38.0515 15.1801 37.9562 15.0392 37.8362 14.9209C37.7163 14.8026 37.574 14.7094 37.4177 14.6465C37.2613 14.5837 37.0941 14.5526 36.9256 14.555H29.7565L31.3952 5.89275C31.458 5.5613 31.3865 5.21848 31.1966 4.93971C31.0066 4.66094 30.7136 4.46907 30.3822 4.40629C30.0507 4.34351 29.7079 4.41497 29.4291 4.60495C29.1504 4.79494 28.9585 5.08788 28.8957 5.41934L27.1676 14.555H17.8912L19.53 5.89275C19.5682 5.705 19.5635 5.51104 19.5162 5.32536C19.469 5.13968 19.3803 4.96709 19.257 4.82048C19.1336 4.67388 18.9787 4.55705 18.8038 4.47873C18.6289 4.40042 18.4386 4.36264 18.2471 4.36822ZM17.4095 17.0975H26.6859L25.0835 25.5727H15.8072L17.4095 17.0975Z" fill="white"/>
</svg>
